<?xml version="1.0" encoding="utf-8"?>
<!-- Generator: Adobe Illustrator 28.0.0, SVG Export Plug-In . SVG Version: 6.00 Build 0)  -->
<svg version="1.1" id="Capa_1" xmlns="http://www.w3.org/2000/svg" xmlns:xlink="http://www.w3.org/1999/xlink" x="0px" y="0px"
	 viewBox="0 0 821 823.9" style="enable-background:new 0 0 821 823.9;" xml:space="preserve">
<style type="text/css">
	.st0{fill:none;stroke:url(#SVGID_1_);stroke-width:7;stroke-miterlimit:10;}
	.st1{fill:none;stroke:#3CB8C0;stroke-width:2;stroke-miterlimit:10;}
</style>
<g>
	
		<linearGradient id="SVGID_1_" gradientUnits="userSpaceOnUse" x1="211.7705" y1="312.175" x2="830.1805" y2="312.175" gradientTransform="matrix(0.7071 -0.7071 0.7071 0.7071 41.2577 559.5806)">
		<stop  offset="2.536774e-04" style="stop-color:#312880"/>
		<stop  offset="0.912" style="stop-color:#E62883"/>
	</linearGradient>
	<path class="st0" d="M267.3,481.2l-41.4-41.4c-5.3-5.3-5.3-13.8,0-19.1L639.1,7.5c5.3-5.3,13.8-5.3,19.1,0L746,95.3
		c5.3,5.3,5.3,13.8,0,19.1L452.8,407.6c-5.3,5.3-5.3,13.8,0,19.1l269.7,269.7c5.3,5.3,5.3,13.8,0,19.1L621.6,816.4
		c-5.3,5.3-13.8,5.3-19.1,0L508,721.9c-5.3-5.3-5.3-13.8,0-19.1l305.6-305.6c5.3-5.3,5.3-13.8,0-19.1l-84.2-84.2
		c-5.3-5.3-13.8-5.3-19.1,0L404.7,599.5c-5.3,5.3-13.8,5.3-19.1,0l-61.1-61.1L267.3,481.2z"/>
	<path class="st1" d="M211.3,311.6l-46,46c-1.9,1.9-5,1.9-7,0l-46-46c-1.9-1.9-1.9-5,0-7l46-46c1.9-1.9,5-1.9,7,0l46,46
		C213.2,306.6,213.2,309.7,211.3,311.6z"/>
	<path class="st1" d="M65.2,446.7l-29.4,29.4c-1.2,1.2-3.2,1.2-4.5,0L1.9,446.7c-1.2-1.2-1.2-3.2,0-4.5l29.4-29.4
		c1.2-1.2,3.2-1.2,4.5,0l29.4,29.4C66.5,443.5,66.5,445.5,65.2,446.7z"/>
	<path class="st1" d="M212.2,626.6l-73.9,73.9c-3.1,3.1-8.1,3.1-11.2,0l-73.9-73.9c-3.1-3.1-3.1-8.1,0-11.2l73.9-73.9
		c3.1-3.1,8.1-3.1,11.2,0l73.9,73.9C215.3,618.5,215.3,623.5,212.2,626.6z"/>
</g>
</svg>
