<?xml version="1.0" encoding="utf-8"?>
<!-- Generator: Adobe Illustrator 28.0.0, SVG Export Plug-In . SVG Version: 6.00 Build 0)  -->
<svg version="1.1" id="Capa_1" xmlns="http://www.w3.org/2000/svg" xmlns:xlink="http://www.w3.org/1999/xlink" x="0px" y="0px"
	 viewBox="0 0 727.3 331.8" style="enable-background:new 0 0 727.3 331.8;" xml:space="preserve">
<style type="text/css">
	.st0{fill:url(#SVGID_1_);}
</style>
<g>
	<linearGradient id="SVGID_1_" gradientUnits="userSpaceOnUse" x1="0" y1="165.8824" x2="727.2521" y2="165.8824">
		<stop  offset="2.536774e-04" style="stop-color:#312880"/>
		<stop  offset="0.912" style="stop-color:#E62883"/>
	</linearGradient>
	<path class="st0" d="M717.7,2.3c4,0,7.2,3.2,7.2,7.2v312.6c0,4-3.2,7.2-7.2,7.2H9.6c-4,0-7.2-3.2-7.2-7.2V9.6c0-4,3.2-7.2,7.2-7.2
		H717.7 M717.7,0H9.6C4.3,0,0,4.3,0,9.6v312.6c0,5.3,4.3,9.6,9.6,9.6h708.1c5.3,0,9.6-4.3,9.6-9.6V9.6C727.3,4.3,723,0,717.7,0
		L717.7,0z"/>
</g>
</svg>
