<?xml version="1.0" encoding="utf-8"?>
<!-- Generator: Adobe Illustrator 28.0.0, SVG Export Plug-In . SVG Version: 6.00 Build 0)  -->
<svg version="1.1" id="Capa_1" xmlns="http://www.w3.org/2000/svg" xmlns:xlink="http://www.w3.org/1999/xlink" x="0px" y="0px"
	 viewBox="0 0 13.5 9.2" style="enable-background:new 0 0 13.5 9.2;" xml:space="preserve">
<style type="text/css">
	.st0{fill:#E62883;}
</style>
<g>
	<path class="st0" d="M6.5,3.9H7L13.5,1V0.4c0-0.2-0.2-0.4-0.4-0.4H0.4C0.2,0,0,0.2,0,0.4V1L6.5,3.9z"/>
	<path class="st0" d="M7.8,4.7v1.1c0,0.1-0.1,0.3-0.3,0.3H5.9C5.8,6.1,5.7,6,5.7,5.8V4.6L0,2v6.8C0,9,0.2,9.2,0.4,9.2h12.7
		c0.2,0,0.4-0.2,0.4-0.4V2.1L7.8,4.7z"/>
</g>
</svg>
