<?xml version="1.0" encoding="utf-8"?>
<!-- Generator: Adobe Illustrator 28.0.0, SVG Export Plug-In . SVG Version: 6.00 Build 0)  -->
<svg version="1.1" id="Capa_1" xmlns="http://www.w3.org/2000/svg" xmlns:xlink="http://www.w3.org/1999/xlink" x="0px" y="0px"
	 viewBox="0 0 392.2 537.9" style="enable-background:new 0 0 392.2 537.9;" xml:space="preserve">
<style type="text/css">
	.st0{fill:url(#SVGID_1_);}
</style>
<linearGradient id="SVGID_1_" gradientUnits="userSpaceOnUse" x1="265.5935" y1="126.614" x2="-19.1062" y2="411.3136">
	<stop  offset="2.536774e-04" style="stop-color:#312880"/>
	<stop  offset="0.912" style="stop-color:#E62883"/>
</linearGradient>
<path class="st0" d="M362.3,223.3l27.3,27.3c3.5,3.5,3.5,9.1,0,12.6L117.5,535.3c-3.5,3.5-9.1,3.5-12.6,0l-57.8-57.8
	c-3.5-3.5-3.5-9.1,0-12.6l193.1-193.1c3.5-3.5,3.5-9.1,0-12.6L62.6,81.6c-3.5-3.5-3.5-9.1,0-12.6L129,2.6c3.5-3.5,9.1-3.5,12.6,0
	l62.2,62.2c3.5,3.5,3.5,9.1,0,12.6L2.6,278.6c-3.5,3.5-3.5,9.1,0,12.6l55.5,55.5c3.5,3.5,9.1,3.5,12.6,0l201.2-201.2
	c3.5-3.5,9.1-3.5,12.6,0l40.3,40.3L362.3,223.3z"/>
</svg>
