<?xml version="1.0" encoding="utf-8"?>
<!-- Generator: Adobe Illustrator 28.0.0, SVG Export Plug-In . SVG Version: 6.00 Build 0)  -->
<svg version="1.1" id="Capa_1" xmlns="http://www.w3.org/2000/svg" xmlns:xlink="http://www.w3.org/1999/xlink" x="0px" y="0px"
	 viewBox="0 0 12.1 12.1" style="enable-background:new 0 0 12.1 12.1;" xml:space="preserve">
<style type="text/css">
	.st0{fill:#E62883;}
</style>
<path class="st0" d="M11.9,8.8L9.4,6.2c-0.2-0.2-0.5-0.2-0.7,0L7.9,7.1c-0.2,0.2-0.4,0.2-0.5,0L5,4.7C4.9,4.5,4.9,4.3,5,4.2l0.8-0.8
	C6,3.1,6,2.8,5.8,2.6L3.3,0.1C3.1,0,2.8,0,2.6,0.1L0.1,2.6C0,2.8,0,3.1,0.1,3.3l1.5,1.5l0,0l0.6,0.6l0.3,0.3h0l3.7,3.7l2.4,2.4
	c0.2,0.2,0.5,0.2,0.7,0l2.5-2.5C12.1,9.2,12.1,8.9,11.9,8.8z"/>
</svg>
