<?xml version="1.0" encoding="utf-8"?>
<!-- Generator: Adobe Illustrator 28.0.0, SVG Export Plug-In . SVG Version: 6.00 Build 0)  -->
<svg version="1.1" id="Capa_1" xmlns="http://www.w3.org/2000/svg" xmlns:xlink="http://www.w3.org/1999/xlink" x="0px" y="0px"
	 viewBox="0 0 64 55" style="enable-background:new 0 0 64 55;" xml:space="preserve">
<style type="text/css">
	.st0{fill:#F2F2F2;}
</style>
<g>
	<g>
		<path class="st0" d="M31.8,50.3c0,2.6-2.1,4.7-4.7,4.7s-4.7-2.1-4.7-4.7s2.1-4.6,4.7-4.6S31.8,47.8,31.8,50.3z"/>
		<path class="st0" d="M50.7,50.3c0,2.6-2.1,4.7-4.7,4.7s-4.7-2.1-4.7-4.7s2.1-4.6,4.7-4.6S50.7,47.8,50.7,50.3z"/>
	</g>
	<g>
		<polygon class="st0" points="16.3,36.6 56.7,36.6 59.9,29.7 13.3,29.7 		"/>
		<path class="st0" d="M63.8,20.4c-0.2-0.3-0.5-0.5-0.8-0.5h-8.6c-2.5,3.6-6.7,5.9-11.4,5.9s-8.9-2.4-11.4-5.9H11l-2.6-5.8
			c-0.1-0.4-0.5-0.6-0.9-0.6H1c-0.6,0-1,0.4-1,1s0.4,1,1,1h5.9c0.6,1.3-2-4.5,5.5,12.3h48.5l3-6.4C64.1,21,64,20.6,63.8,20.4z"/>
		<path class="st0" d="M20,44.8c0.2,0.4,0.5,0.6,0.9,0.6h31c0.4,0,0.7-0.2,0.9-0.6l3-6.3H17.2L20,44.8z"/>
	</g>
	<g>
		<path class="st0" d="M41.1,9c0,0.9,0.6,1.2,1.6,1.5V7.7C41.8,7.8,41.1,8.2,41.1,9z"/>
		<path class="st0" d="M43.7,12.8v3c0.9-0.1,1.7-0.5,1.7-1.4C45.4,13.4,44.7,13.1,43.7,12.8z"/>
		<path class="st0" d="M43,0c-6.6,0-11.9,5.3-11.9,11.9S36.4,23.8,43,23.8s11.9-5.3,11.9-11.9S49.6,0,43,0z M43.7,17.5v1.2h-1v-1.2
			c-1.5-0.2-2.8-0.7-4-1.8l1.2-1.4c0.9,0.8,1.9,1.3,2.8,1.4v-3.2c-2.1-0.5-3.6-1.2-3.6-3.3c0-2,1.6-3.2,3.6-3.3V5.1h1v0.8
			C44.9,6,46,6.4,47.1,7.1L46,8.6c-0.7-0.5-1.5-0.8-2.3-1v3.1l0,0c2.1,0.5,3.7,1.2,3.7,3.4C47.4,16.2,45.8,17.4,43.7,17.5z"/>
	</g>
</g>
</svg>
