<?xml version="1.0" encoding="utf-8"?>
<!-- Generator: Adobe Illustrator 28.0.0, SVG Export Plug-In . SVG Version: 6.00 Build 0)  -->
<svg version="1.1" id="Capa_1" xmlns="http://www.w3.org/2000/svg" xmlns:xlink="http://www.w3.org/1999/xlink" x="0px" y="0px"
	 viewBox="0 0 59.6 56.9" style="enable-background:new 0 0 59.6 56.9;" xml:space="preserve">
<style type="text/css">
	.st0{fill-rule:evenodd;clip-rule:evenodd;fill:#F2F2F2;}
</style>
<path class="st0" d="M34.7,10.9c-4.5,0-8.1,3.6-8.1,8.1c0,4.5,3.6,8.1,8.1,8.1c4.5,0,8.1-3.6,8.1-8.1C42.9,14.6,39.2,10.9,34.7,10.9
	z M34.7,28.7c-5.3,0-9.6-4.3-9.6-9.6s4.3-9.6,9.6-9.6c5.3,0,9.6,4.3,9.6,9.6C44.3,24.4,40,28.6,34.7,28.7z M19.6,48.7L7.8,38l6.1-6
	c0,0,0,0,0,0c3.9-4.1,10.3-4.2,14.4-0.3c0.1,0.1,0.2,0.2,0.3,0.3c0.1,0.1,0.3,0.2,0.5,0.2h9.7c1.8,0,3.3,1.4,3.3,3.2
	c0,1.8-1.4,3.3-3.2,3.3c0,0-0.1,0-0.1,0H26.7c-0.4,0-0.7,0.3-0.7,0.7c0,0.4,0.3,0.7,0.7,0.7c0,0,0,0,0,0h12.1c2.6,0,4.8-2.1,4.8-4.8
	c0-0.3,0-0.5-0.1-0.8l6.4-3.9c0.1-0.1,0.2-0.1,0.2-0.2l2.3-3.5c0.2-0.3,0.4-0.5,0.7-0.7c2.9-2,4.4-2.1,5.2-1.9
	c0.6,0.2,1,0.8,1.3,1.8c0.2,0.8,0,1.6-0.5,2.2L45.4,45.5c-0.6,0.8-1.6,1.3-2.6,1.2H22.5c-0.6,0-1.3,0.3-1.7,0.7L19.6,48.7z
	 M19.3,51.7c0.3-0.4,0.3-0.9-0.1-1.2L5.9,38.3C5.6,38,5,38,4.7,38.4c0,0,0,0,0,0l-4.5,4.9c-0.3,0.4-0.3,0.9,0,1.2c0,0,0,0,0,0
	l13.4,12.1c0.4,0.3,0.9,0.3,1.2-0.1L19.3,51.7L19.3,51.7z M20.2,22.9c-0.1-0.3-0.3-0.5-0.6-0.5l-3.9-0.7v-5.2l3.9-0.7
	c0.3,0,0.5-0.3,0.6-0.5c0.3-1.3,0.9-2.6,1.6-3.8c0.1-0.2,0.1-0.6,0-0.8l-2.3-3.2l3.7-3.7L26.4,6c0.2,0.2,0.5,0.2,0.8,0
	c1.2-0.7,2.4-1.2,3.8-1.6c0.3-0.1,0.5-0.3,0.5-0.6L32.1,0h5.2L38,3.9c0,0.3,0.3,0.5,0.5,0.6c1.3,0.3,2.6,0.9,3.8,1.6
	c0.2,0.1,0.6,0.1,0.8,0l3.2-2.3L50,7.4l-2.3,3.2c-0.2,0.2-0.2,0.5,0,0.8c0.7,1.2,1.2,2.4,1.6,3.8c0.1,0.3,0.3,0.5,0.6,0.5l3.9,0.7
	v5.2l-3.9,0.7c-0.3,0.1-0.5,0.3-0.6,0.5c-0.3,1.3-0.9,2.6-1.6,3.8c-0.1,0.2-0.1,0.6,0,0.8l1.4,2L49,29.7l-6,3.7
	c-0.8-1.6-2.4-2.5-4.2-2.5h-9.4c-2.1-2-4.8-3.2-7.7-3.3l0,0c0.2-0.2,0.2-0.5,0-0.8C21,25.5,20.5,24.2,20.2,22.9z"/>
</svg>
