<?xml version="1.0" encoding="utf-8"?>
<!-- Generator: Adobe Illustrator 28.0.0, SVG Export Plug-In . SVG Version: 6.00 Build 0)  -->
<svg version="1.1" id="Capa_1" xmlns="http://www.w3.org/2000/svg" xmlns:xlink="http://www.w3.org/1999/xlink" x="0px" y="0px"
	 viewBox="0 0 55.5 58.5" style="enable-background:new 0 0 55.5 58.5;" xml:space="preserve">
<style type="text/css">
	.st0{fill:#F2F2F2;}
</style>
<g>
	<path class="st0" d="M55.3,11.8l-3.9,3.3v25.3H3.9V13.9H31l3.4-3.9h-32C1.1,9.9,0,11,0,12.5v34.2c0,1.4,1.1,2.5,2.5,2.5h20.3v4.6
		h-4.5c-0.7,0-1.2,0.6-1.2,1.2v2.3c0,0.7,0.6,1.2,1.2,1.2h18.9c0.7,0,1.2-0.6,1.2-1.2v-2.3c0-0.7-0.6-1.2-1.2-1.2h-4.5v-4.6H53
		c1.4,0,2.5-1.1,2.5-2.5V12.4C55.4,12.2,55.4,12,55.3,11.8z M27.7,46.5c-1,0-1.7-0.7-1.7-1.7c0-0.9,0.7-1.7,1.7-1.7
		c0.9,0,1.7,0.8,1.7,1.7S28.6,46.5,27.7,46.5z"/>
	<path class="st0" d="M35.5,19.5c0.9,0.9,1.5,1.8,2,2.9L53.3,8.7c2.2-1.9,2.3-5.2,0.2-7.3c-2-2-5.4-1.9-7.3,0.2L32.6,17.6
		C33.7,18,34.7,18.7,35.5,19.5z"/>
	<path class="st0" d="M24.9,22.1c-2.4,2.4-1.2,6.5-5.2,9.4c-0.7,0.6-0.5,1.7,0.4,1.8c6.1,1.3,10.5-0.9,12.8-3.2
		c2.2-2.2,2.2-5.8,0-8.1C30.7,19.8,27.1,19.8,24.9,22.1z"/>
</g>
</svg>
