<?xml version="1.0" encoding="utf-8"?>
<!-- Generator: Adobe Illustrator 28.0.0, SVG Export Plug-In . SVG Version: 6.00 Build 0)  -->
<svg version="1.1" id="Capa_1" xmlns="http://www.w3.org/2000/svg" xmlns:xlink="http://www.w3.org/1999/xlink" x="0px" y="0px"
	 viewBox="0 0 55.3 55.4" style="enable-background:new 0 0 55.3 55.4;" xml:space="preserve">
<style type="text/css">
	.st0{fill:#F2F2F2;}
</style>
<g>
	<g>
		<path class="st0" d="M43.5,21.4c-6.1-6.1-16-6.2-22.2,0c-6.1,6.1-6.1,16,0,22.1c6.1,6.1,16,6.2,22.2,0
			C49.6,37.4,49.7,27.5,43.5,21.4z M40.3,40.3c-4.4,4.3-11.3,4.3-15.6,0c-4.3-4.3-4.3-11.3,0-15.6c4.3-4.3,11.3-4.4,15.6,0
			C44.6,29,44.6,36,40.3,40.3z"/>
	</g>
	<g>
		<path class="st0" d="M53.6,53.6c-2.2,2.2-6,2.4-8.3,0l-5-5c1.8-0.9,3.4-2,4.9-3.5c1.4-1.4,2.6-3.1,3.5-4.9l5,5
			C55.9,47.5,56,51.2,53.6,53.6z"/>
	</g>
	<g>
		<path class="st0" d="M40.2,8.9V3.4c0-1.8-1.5-3.4-3.4-3.4H3.4C1.5,0,0,1.5,0,3.4v5.5H40.2z M14.4,4.5h0.7c0.6,0,1.2,0.5,1.2,1.2
			s-0.5,1.2-1.2,1.2h-0.7c-0.6,0-1.2-0.5-1.2-1.2S13.8,4.5,14.4,4.5z M10,4.5h0.7c0.6,0,1.2,0.5,1.2,1.2s-0.5,1.2-1.2,1.2H10
			c-0.6,0-1.2-0.5-1.2-1.2S9.4,4.5,10,4.5z M5.6,4.5h0.7c0.6,0,1.2,0.5,1.2,1.2S6.9,6.8,6.3,6.8H5.6c-0.6,0-1.2-0.5-1.2-1.2
			S4.9,4.5,5.6,4.5z"/>
		<path class="st0" d="M40.2,11.2v5.1c-2.4-1.2-5.1-1.8-7.8-1.8c-4.8,0-9.3,1.9-12.7,5.3c-3.4,3.4-5.3,7.9-5.3,12.7
			c0,0.8,0,1.5,0.1,2.3H3.4c-1.9,0-3.4-1.5-3.4-3.4V11.2H40.2z"/>
	</g>
</g>
</svg>
