<?xml version="1.0" encoding="utf-8"?>
<!-- Generator: Adobe Illustrator 28.0.0, SVG Export Plug-In . SVG Version: 6.00 Build 0)  -->
<svg version="1.1" id="Capa_1" xmlns="http://www.w3.org/2000/svg" xmlns:xlink="http://www.w3.org/1999/xlink" x="0px" y="0px"
	 viewBox="0 0 70.1 49.7" style="enable-background:new 0 0 70.1 49.7;" xml:space="preserve">
<style type="text/css">
	.st0{fill:#F2F2F2;}
</style>
<g>
	<path class="st0" d="M65.9,0H4.3C1.9,0,0,1.9,0,4.3v41.1c0,2.4,1.9,4.3,4.3,4.3h61.6c2.4,0,4.3-1.9,4.3-4.3V4.3
		C70.1,1.9,68.2,0,65.9,0z M63.2,2.4c1.8,0,3.3,1.5,3.3,3.3C66.5,7.5,65,9,63.2,9c-1.8,0-3.3-1.5-3.3-3.3
		C59.9,3.9,61.3,2.4,63.2,2.4z M3.9,3.3c0.5-0.8,1.6-1.1,2.4-0.6l4.9,3c0.8,0.5,1.1,1.6,0.6,2.5C11.4,9,10.3,9.2,9.4,8.7l-4.9-3
		C3.7,5.2,3.4,4.1,3.9,3.3z M67.3,43.1H2.8V10.9h64.4L67.3,43.1L67.3,43.1z"/>
	<path class="st0" d="M47,17.1l-4.5-4.4c-0.5-0.5-1.4-0.5-2,0L22.5,30.8c-0.2,0.2-0.3,0.4-0.4,0.7L21,37.1c-0.1,0.5,0.1,0.9,0.4,1.3
		c0.3,0.3,0.8,0.5,1.3,0.4l5.5-1.1c0.3-0.1,0.5-0.2,0.7-0.4L47,19.1C47.6,18.5,47.6,17.6,47,17.1z M44,18.1l-8.2,8.2l-2.5-2.5
		l8.2-8.2L44,18.1z M24.2,35.6l0.6-3.1l0.1-0.1l2.5,2.5L27.2,35L24.2,35.6z"/>
</g>
</svg>
