<?xml version="1.0" encoding="utf-8"?>
<!-- Generator: Adobe Illustrator 28.0.0, SVG Export Plug-In . SVG Version: 6.00 Build 0)  -->
<svg version="1.1" id="Capa_1" xmlns="http://www.w3.org/2000/svg" xmlns:xlink="http://www.w3.org/1999/xlink" x="0px" y="0px"
	 viewBox="0 0 59.2 57.1" style="enable-background:new 0 0 59.2 57.1;" xml:space="preserve">
<style type="text/css">
	.st0{fill:#F2F2F2;}
</style>
<g>
	<circle class="st0" cx="11.2" cy="28.4" r="7.3"/>
	<path class="st0" d="M13.9,37.6H8.5c-3.9,0-7.2,2.9-7.7,6.9L0,50.8c-0.1,0.8,0.4,1.6,1.2,1.7c3.1,0.7,6.5,1,9.9,1
		c1.4,0,2.8-0.1,4.1-0.2l0.7-5.6c0.4-2.9,1.8-5.4,3.9-7.2C18.5,38.7,16.3,37.6,13.9,37.6z"/>
	<circle class="st0" cx="48.1" cy="28.4" r="7.3"/>
	<path class="st0" d="M58.5,44.5c-0.4-3.9-3.8-6.9-7.7-6.9h-5.4c-2.4,0-4.6,1.1-6,2.9c2.1,1.7,3.6,4.2,3.9,7.2l0.7,5.6
		c1.3,0.1,2.7,0.2,4.1,0.2c3.5,0,6.8-0.4,9.9-1c0.8-0.2,1.3-0.9,1.2-1.7L58.5,44.5z"/>
	<path class="st0" d="M32.3,41.3h-5.4c-3.9,0-7.2,2.9-7.7,6.8l-0.7,6.3c-0.1,0.8,0.4,1.6,1.2,1.7c3.1,0.7,6.5,1,9.9,1
		c3.5,0,6.8-0.4,9.9-1c0.8-0.2,1.3-0.9,1.2-1.7L40,48.1C39.5,44.2,36.2,41.3,32.3,41.3z"/>
	<circle class="st0" cx="29.6" cy="32.1" r="7.3"/>
	<path class="st0" d="M22.8,12.9c0.4,0.4,0.6,1,0.5,1.6l-1.2,4.9c-0.3,1.4,1.2,2.4,2.4,1.7l4.3-2.6c0.5-0.3,1.1-0.3,1.6,0l4.3,2.6
		c1.2,0.7,2.7-0.4,2.4-1.7l-1.2-4.9c-0.1-0.6,0.1-1.2,0.5-1.6l3.8-3.2C41.3,8.8,40.7,7,39.3,7l-5-0.4c-0.6-0.1-1.1-0.4-1.3-0.9
		L31.1,1c-0.6-1.3-2.4-1.3-2.9,0l-1.9,4.5c-0.2,0.6-0.7,0.9-1.3,0.9l-5,0.4C18.6,7,18,8.8,19.1,9.6L22.8,12.9z"/>
</g>
</svg>
