<?xml version="1.0" encoding="utf-8"?>
<!-- Generator: Adobe Illustrator 28.0.0, SVG Export Plug-In . SVG Version: 6.00 Build 0)  -->
<svg version="1.1" id="Capa_1" xmlns="http://www.w3.org/2000/svg" xmlns:xlink="http://www.w3.org/1999/xlink" x="0px" y="0px"
	 viewBox="0 0 58 59.3" style="enable-background:new 0 0 58 59.3;" xml:space="preserve">
<style type="text/css">
	.st0{fill:#F2F2F2;}
</style>
<path class="st0" d="M44.6,40.9c2.3-3.4,3.7-7.4,3.7-11.9c0-3.7-0.9-7.1-2.6-10.1l5.9-7.8l2.4,1.9c0.3,0.3,0.7,0.4,1.1,0.4
	c0.3,0,0.4-0.1,0.7-0.1c0.6-0.3,1-0.8,1.1-1.4L58,1.9c0.1-0.6-0.2-1.2-0.6-1.5C57,0,56.3-0.1,55.8,0.1l-9.6,3.4
	c-0.6,0.2-1,0.8-1.1,1.3c-0.1,0.6,0.1,1.3,0.6,1.6l2.6,2.1L43,15.2c-3.8-4.3-9.4-7.1-15.6-7.1c-11.5,0-20.9,9.4-20.9,20.9
	c0,3.1,0.7,6,1.9,8.6l0,0l-7.9,9.6c-0.8,0.9-0.6,2.3,0.3,3.1c0.4,0.3,0.9,0.5,1.4,0.5c0.6,0,1.3-0.3,1.7-0.8l18-21.9l5.6,9.6
	c0.4,0.6,1,1,1.8,1.1c0.8,0.1,1.4-0.3,1.9-0.9l7.1-9.3c0-1.9-0.6-3.6-1.5-5.2l-7.1,9.3l-5.5-9.5c-0.4-0.6-1-1-1.7-1.1
	c-0.7,0-1.4,0.3-1.9,0.8l-7.4,8.9C12.9,31,12.8,30,12.8,29c0-8.1,6.6-14.6,14.6-14.6c8.1,0,14.7,6.6,14.7,14.6s-6.6,14.6-14.6,14.6
	c-3.9,0-7.6-1.6-10.2-4.1l-3.9,4.8c3.7,3.4,8.7,5.5,14.1,5.5c4.4,0,8.5-1.4,11.9-3.7l12.1,12.1c0.8,0.8,1.7,1.1,2.7,1.1
	c0.9,0,1.9-0.4,2.6-1.1c1.4-1.5,1.4-3.9,0-5.3L44.6,40.9z"/>
</svg>
