<?xml version="1.0" encoding="utf-8"?>
<!-- Generator: Adobe Illustrator 28.0.0, SVG Export Plug-In . SVG Version: 6.00 Build 0)  -->
<svg version="1.1" id="Capa_1" xmlns="http://www.w3.org/2000/svg" xmlns:xlink="http://www.w3.org/1999/xlink" x="0px" y="0px"
	 viewBox="0 0 82 51.9" style="enable-background:new 0 0 82 51.9;" xml:space="preserve">
<style type="text/css">
	.st0{fill:#F2F2F2;}
</style>
<g>
	<path class="st0" d="M45,9.1h-0.9c-0.5,0-0.9,0.4-0.9,0.9v2.6c0,0.5,0.4,0.9,0.9,0.9H45c0.1,1.5,1.3,2.7,2.8,2.7h0.3l1,4.1
		c-0.6,0.5-1,1.2-1.2,2.1c-0.4,2-1,4-1.5,5.5l-0.1-0.1c-2.9-2.2-6.6-5-10.6-5h-12c-2.4-0.1-4.5,1.6-8.4,5c-1,0.9-2.3,2-3,2.5
		c-1.2,0-4.5-0.8-7.3-1.6c-2-0.7-4.2,0.4-4.8,2.4c-0.7,2,0.4,4.2,2.4,4.8c4.1,1.3,7.3,2,9.7,2c1.2,0,2.2-0.2,2.9-0.5
		c1.2-0.5,2.5-1.6,4.5-3.3l-0.5,14.7c-0.1,1.8,1.4,3.3,3.2,3.3h14.4c1.8,0,3.3-1.5,3.2-3.3l-0.6-16.4c0.8,0.5,1.6,1.1,2.2,1.6
		c2.8,2.2,5.2,4,8,2.8c1.4-0.6,3.2-1.4,5.8-12.7c0.4-1.9-0.6-3.7-2.4-4.4l-0.8-3.4h3.7V6.4h-8C46.3,6.4,45.1,7.5,45,9.1z"/>
	<path class="st0" d="M67.7,8.6V2.1c0-1-0.8-1.6-1.6-1.6c-0.3,0-0.7,0.1-1,0.3l-7.3,5.5v9.8l7.3,5.5c0.3,0.3,0.6,0.3,1,0.3
		c0.9,0,1.6-0.7,1.6-1.6v-6.5c1.4-0.1,2.4-1.3,2.4-2.7C70.2,9.8,69,8.6,67.7,8.6z"/>
	<path class="st0" d="M80.7,9.9h-5.8c-0.7,0-1.3,0.6-1.3,1.3s0.6,1.3,1.3,1.3h5.8c0.7,0,1.3-0.6,1.3-1.3S81.4,9.9,80.7,9.9z"/>
	<path class="st0" d="M72.7,7.2c0.3,0,0.7-0.1,1-0.3l4.1-4.1c0.5-0.5,0.5-1.3,0-1.8s-1.3-0.5-1.8,0L71.8,5c-0.5,0.5-0.5,1.3,0,1.8
		C72,7,72.3,7.2,72.7,7.2z"/>
	<path class="st0" d="M73.5,15.7c-0.5-0.5-1.3-0.5-1.8,0c-0.5,0.5-0.5,1.3,0,1.8l4.1,4.1c0.3,0.3,0.6,0.3,1,0.3c0.3,0,0.7-0.1,1-0.3
		c0.5-0.5,0.5-1.3,0-1.8L73.5,15.7z"/>
	<circle class="st0" cx="29.7" cy="10" r="10"/>
</g>
</svg>
