<?xml version="1.0" encoding="utf-8"?>
<!-- Generator: Adobe Illustrator 28.0.0, SVG Export Plug-In . SVG Version: 6.00 Build 0)  -->
<svg version="1.1" id="Capa_1" xmlns="http://www.w3.org/2000/svg" xmlns:xlink="http://www.w3.org/1999/xlink" x="0px" y="0px"
	 viewBox="0 0 602.6 823.9" style="enable-background:new 0 0 602.6 823.9;" xml:space="preserve">
<style type="text/css">
	.st0{fill:none;stroke:url(#SVGID_1_);stroke-width:7;stroke-miterlimit:10;}
</style>
<linearGradient id="SVGID_1_" gradientUnits="userSpaceOnUse" x1="-84.1886" y1="516.01" x2="534.2213" y2="516.01" gradientTransform="matrix(0.7071 -0.7071 0.7071 0.7071 -112.0484 206.1727)">
	<stop  offset="2.536774e-04" style="stop-color:#312880"/>
	<stop  offset="0.912" style="stop-color:#E62883"/>
</linearGradient>
<path class="st0" d="M48.9,481.2L7.5,439.8c-5.3-5.3-5.3-13.8,0-19.1L420.7,7.5c5.3-5.3,13.8-5.3,19.1,0l87.8,87.8
	c5.3,5.3,5.3,13.8,0,19.1L234.3,407.6c-5.3,5.3-5.3,13.8,0,19.1l269.7,269.7c5.3,5.3,5.3,13.8,0,19.1L403.2,816.4
	c-5.3,5.3-13.8,5.3-19.1,0l-94.5-94.5c-5.3-5.3-5.3-13.8,0-19.1l305.6-305.6c5.3-5.3,5.3-13.8,0-19.1l-84.2-84.2
	c-5.3-5.3-13.8-5.3-19.1,0L186.3,599.5c-5.3,5.3-13.8,5.3-19.1,0L106,538.4L48.9,481.2z"/>
</svg>
