<?xml version="1.0" encoding="utf-8"?>
<!-- Generator: Adobe Illustrator 28.0.0, SVG Export Plug-In . SVG Version: 6.00 Build 0)  -->
<svg version="1.1" id="Capa_1" xmlns="http://www.w3.org/2000/svg" xmlns:xlink="http://www.w3.org/1999/xlink" x="0px" y="0px"
	 viewBox="0 0 296.3 49.3" style="enable-background:new 0 0 296.3 49.3;" xml:space="preserve">
<style type="text/css">
	.st0{fill:url(#SVGID_1_);}
	.st1{fill:#FFFFFF;}
	.st2{fill:#3CB8C0;}
	.st3{fill:#232A74;}
</style>
<g>
	<g>
		<linearGradient id="SVGID_1_" gradientUnits="userSpaceOnUse" x1="39.7882" y1="49.6861" x2="9.4796" y2="11.3649">
			<stop  offset="2.536774e-04" style="stop-color:#312880"/>
			<stop  offset="0.912" style="stop-color:#E62883"/>
		</linearGradient>
		<path class="st0" d="M40.1,10.2c-0.6,0-1-0.5-1-1V3.5c0-0.4-0.3-0.7-0.7-0.7H3.7C1.7,2.8,0,4.5,0,6.5v39.1c0,2,1.7,3.7,3.7,3.7
			h39.1c2,0,3.7-1.7,3.7-3.7V10.9c0-0.4-0.3-0.7-0.7-0.7H40.1z"/>
		<path class="st1" d="M10,17v-2.8c0-0.4,0.3-0.6,0.6-0.6h27.8c0.4,0,0.6,0.3,0.6,0.6v5.9c0,0.4-0.3,0.6-0.6,0.6H18.7
			c-0.4,0-0.6,0.3-0.6,0.6v18.2c0,0.4-0.3,0.6-0.6,0.6h-6.8c-0.4,0-0.6-0.3-0.6-0.6v-6.4c0-0.4,0.3-0.6,0.6-0.6h20.6
			c0.4,0,0.6-0.3,0.6-0.6v-5.7c0-0.4-0.3-0.6-0.6-0.6H10.6c-0.4,0-0.6-0.3-0.6-0.6v-4.1V17z"/>
		<path class="st2" d="M49,7.4h-6.4c-0.3,0-0.5-0.2-0.5-0.5V0.5c0-0.3,0.2-0.5,0.5-0.5H49c0.3,0,0.5,0.2,0.5,0.5v6.4
			C49.4,7.2,49.2,7.4,49,7.4z"/>
	</g>
	<g>
		<path class="st3" d="M66.4,38.9V15.7h19.9V19H69.7v6.6h14.9v3.3H69.7v9.9H66.4z"/>
		<path class="st3" d="M94.9,19v-3.3h3.3V19H94.9z M94.9,38.9V22.3h3.3v16.6H94.9z"/>
		<path class="st3" d="M110.1,38.9c-0.9,0-1.7-0.3-2.4-0.9c-0.6-0.7-0.9-1.4-0.9-2.4v-9.9c0-0.9,0.3-1.7,0.9-2.3
			c0.7-0.7,1.4-1,2.4-1h16.6v-6.6h3.3v23.2H110.1z M126.7,35.6v-9.9h-16.6v9.9H126.7z"/>
		<path class="st3" d="M138.6,38.9V15.7h19.9c0.9,0,1.7,0.3,2.3,1c0.7,0.7,1,1.4,1,2.3v16.6c0,0.9-0.3,1.7-1,2.4
			c-0.7,0.6-1.4,0.9-2.3,0.9H138.6z M158.5,35.6V19h-16.6v16.6H158.5z"/>
		<path class="st3" d="M170.4,19v-3.3h3.3V19H170.4z M170.4,38.9V22.3h3.3v16.6H170.4z"/>
		<path class="st3" d="M185.7,45.5v-3.3h16.6v-3.3h-16.6c-0.9,0-1.7-0.3-2.4-0.9c-0.6-0.7-0.9-1.4-0.9-2.4v-9.9
			c0-0.9,0.3-1.7,0.9-2.3c0.7-0.7,1.4-1,2.4-1h19.9v19.9c0,0.9-0.3,1.7-1,2.3c-0.7,0.7-1.4,1-2.3,1H185.7z M202.2,35.6v-9.9h-16.6
			v9.9H202.2z"/>
		<path class="st3" d="M214.2,19v-3.3h3.3V19H214.2z M214.2,38.9V22.3h3.3v16.6H214.2z"/>
		<path class="st3" d="M232.7,38.9c-0.9,0-1.7-0.3-2.4-0.9c-0.6-0.7-0.9-1.4-0.9-2.4v-9.9h-3.3v-3.3h3.3v-6.6h3.3v6.6H246v3.3h-13.3
			v9.9H246v3.3H232.7z"/>
		<path class="st3" d="M257.9,38.9c-0.9,0-1.7-0.3-2.4-0.9c-0.6-0.7-0.9-1.4-0.9-2.4v-9.9c0-0.9,0.3-1.7,0.9-2.3
			c0.7-0.7,1.4-1,2.4-1h19.9v16.6H257.9z M274.5,35.6v-9.9h-16.6v9.9H274.5z"/>
		<path class="st3" d="M289.7,38.9c-0.9,0-1.7-0.3-2.4-0.9c-0.6-0.7-0.9-1.4-0.9-2.4V15.7h3.3v19.9h6.6v3.3H289.7z"/>
	</g>
</g>
</svg>
