<?xml version="1.0" encoding="utf-8"?>
<!-- Generator: Adobe Illustrator 28.0.0, SVG Export Plug-In . SVG Version: 6.00 Build 0)  -->
<svg version="1.1" id="Capa_1" xmlns="http://www.w3.org/2000/svg" xmlns:xlink="http://www.w3.org/1999/xlink" x="0px" y="0px"
	 viewBox="0 0 23 23" style="enable-background:new 0 0 23 23;" xml:space="preserve">
<style type="text/css">
	.st0{fill:#F2F2F2;}
</style>
<g>
	<path class="st0" d="M7.9,0.6L0.6,7.9c-0.8,0.8-0.8,2.2,0,3.1l7.2,7.2c0.8,0.8,2.2,0.8,3.1,0l7.2-7.2c0.8-0.8,0.8-2.2,0-3.1
		l-7.2-7.2C10.1-0.2,8.7-0.2,7.9,0.6z M15.6,8.8c0.3,0.3,0.3,0.9,0,1.2L10,15.6c-0.3,0.3-0.9,0.3-1.2,0L3.2,10
		c-0.3-0.3-0.3-0.9,0-1.2l5.5-5.5c0.3-0.3,0.9-0.3,1.2,0L15.6,8.8z"/>
	<path class="st0" d="M22.9,21.6l-1.3,1.3c-0.1,0.1-0.3,0.1-0.4,0L15,16.8c-0.1-0.1-0.1-0.3,0-0.4l1.3-1.3c0.1-0.1,0.3-0.1,0.4,0
		l6.1,6.1C23,21.3,23,21.5,22.9,21.6z"/>
</g>
</svg>
