<?xml version="1.0" encoding="utf-8"?>
<!-- Generator: Adobe Illustrator 28.0.0, SVG Export Plug-In . SVG Version: 6.00 Build 0)  -->
<svg version="1.1" id="Capa_1" xmlns="http://www.w3.org/2000/svg" xmlns:xlink="http://www.w3.org/1999/xlink" x="0px" y="0px"
	 viewBox="0 0 67.2 16.7" style="enable-background:new 0 0 67.2 16.7;" xml:space="preserve">
<style type="text/css">
	.st0{fill-rule:evenodd;clip-rule:evenodd;fill:#312880;}
	.st1{fill:#312880;}
</style>
<g>
	<g>
		<g id="WA_Logo_00000068641337735344412470000000092575725918348166_">
			<g>
				<path class="st0" d="M13.8,2.6c-1.5-1.5-3.5-2.4-5.7-2.4c-4.4,0-8,3.6-8,8c0,1.4,0.4,2.8,1.1,4L0,16.5l4.3-1.1
					c1.2,0.6,2.5,1,3.8,1h0c4.4,0,8-3.6,8-8C16.1,6.1,15.3,4.1,13.8,2.6z M8.1,15L8.1,15c-1.2,0-2.4-0.3-3.4-0.9l-0.2-0.1l-2.5,0.7
					l0.7-2.5l-0.2-0.3c-0.7-1.1-1-2.3-1-3.6c0-3.7,3-6.7,6.7-6.7c1.8,0,3.5,0.7,4.7,2c1.3,1.3,2,2.9,2,4.7C14.8,12,11.8,15,8.1,15z
					 M11.8,10c-0.2-0.1-1.2-0.6-1.4-0.7c-0.2-0.1-0.3-0.1-0.5,0.1c-0.1,0.2-0.5,0.7-0.6,0.8c-0.1,0.1-0.2,0.2-0.4,0.1
					c-0.2-0.1-0.8-0.3-1.6-1c-0.6-0.5-1-1.2-1.1-1.4C6,7.7,6.1,7.6,6.2,7.5c0.1-0.1,0.2-0.2,0.3-0.4C6.6,7,6.7,6.9,6.7,6.8
					s0-0.3,0-0.4S6.3,5.3,6.1,4.9C5.9,4.5,5.8,4.6,5.6,4.6c-0.1,0-0.3,0-0.4,0c-0.1,0-0.4,0.1-0.5,0.3S4,5.5,4,6.5s0.7,1.9,0.8,2.1
					c0.1,0.1,1.4,2.2,3.4,3c0.5,0.2,0.9,0.3,1.1,0.4c0.5,0.2,0.9,0.1,1.3,0.1c0.4-0.1,1.2-0.5,1.4-1c0.2-0.5,0.2-0.9,0.1-1
					C12.1,10.1,12,10.1,11.8,10z"/>
			</g>
		</g>
	</g>
	<g>
		<g>
			<path class="st1" d="M37.2,1.8c2.1,0,2.4,0,3.2,0c0.8,0,1.2,0.2,1.5,0.3c0.4,0.1,0.6,0.3,0.9,0.6c0.3,0.3,0.5,0.5,0.6,0.9
				c0.1,0.3,0.2,0.7,0.3,1.5c0,0.8,0,1.1,0,3.2s0,2.4,0,3.2c0,0.8-0.2,1.2-0.3,1.5c-0.1,0.4-0.3,0.6-0.6,0.9
				c-0.3,0.3-0.5,0.5-0.9,0.6c-0.3,0.1-0.7,0.2-1.5,0.3c-0.8,0-1.1,0-3.2,0c-2.1,0-2.4,0-3.2,0c-0.8,0-1.2-0.2-1.5-0.3
				c-0.4-0.1-0.6-0.3-0.9-0.6c-0.3-0.3-0.5-0.5-0.6-0.9c-0.1-0.3-0.2-0.7-0.3-1.5c0-0.8,0-1.1,0-3.2s0-2.4,0-3.2
				c0-0.8,0.2-1.2,0.3-1.5c0.1-0.4,0.3-0.6,0.6-0.9c0.3-0.3,0.5-0.5,0.9-0.6C32.8,2,33.2,1.9,34,1.9C34.8,1.8,35.1,1.8,37.2,1.8
				 M37.2,0.4c-2.2,0-2.4,0-3.3,0c-0.8,0-1.4,0.2-1.9,0.4c-0.5,0.2-1,0.5-1.4,0.9c-0.4,0.4-0.7,0.9-0.9,1.4
				c-0.2,0.5-0.3,1.1-0.4,1.9c0,0.9,0,1.1,0,3.3c0,2.2,0,2.4,0,3.3c0,0.8,0.2,1.4,0.4,1.9c0.2,0.5,0.5,1,0.9,1.4
				c0.4,0.4,0.9,0.7,1.4,0.9c0.5,0.2,1.1,0.3,1.9,0.4c0.9,0,1.1,0,3.3,0c2.2,0,2.4,0,3.3,0c0.8,0,1.4-0.2,1.9-0.4
				c0.5-0.2,1-0.5,1.4-0.9c0.4-0.4,0.7-0.9,0.9-1.4c0.2-0.5,0.3-1.1,0.4-1.9c0-0.9,0-1.1,0-3.3s0-2.4,0-3.3c0-0.8-0.2-1.4-0.4-1.9
				c-0.2-0.5-0.5-1-0.9-1.4C43.4,1.3,43,1,42.4,0.8c-0.5-0.2-1.1-0.3-1.9-0.4C39.7,0.4,39.4,0.4,37.2,0.4L37.2,0.4z"/>
			<path class="st1" d="M37.2,4.3c-2.3,0-4.1,1.8-4.1,4.1s1.8,4.1,4.1,4.1c2.3,0,4.1-1.8,4.1-4.1S39.5,4.3,37.2,4.3z M37.2,11
				c-1.5,0-2.7-1.2-2.7-2.7s1.2-2.7,2.7-2.7c1.5,0,2.7,1.2,2.7,2.7S38.7,11,37.2,11z"/>
			<circle class="st1" cx="41.5" cy="4.1" r="1"/>
		</g>
	</g>
	<path class="st1" d="M66.6,9.3l0.5-3h-2.9V4.4c0-0.8,0.4-1.6,1.7-1.6h1.3V0.2c0,0-1.2-0.2-2.3-0.2c-2.4,0-3.9,1.4-3.9,4v2.3h-2.6v3
		h2.6v7.3c0.5,0.1,1.1,0.1,1.6,0.1s1.1,0,1.6-0.1V9.3H66.6z"/>
</g>
</svg>
