<?xml version="1.0" encoding="utf-8"?>
<!-- Generator: Adobe Illustrator 28.0.0, SVG Export Plug-In . SVG Version: 6.00 Build 0)  -->
<svg version="1.1" id="Capa_1" xmlns="http://www.w3.org/2000/svg" xmlns:xlink="http://www.w3.org/1999/xlink" x="0px" y="0px"
	 viewBox="0 0 407.3 327.8" style="enable-background:new 0 0 407.3 327.8;" xml:space="preserve">
<style type="text/css">
	.st0{fill:url(#SVGID_1_);}
	.st1{fill:url(#SVGID_00000150806603977380584850000014217575188222902954_);}
	.st2{fill:url(#SVGID_00000088128692353924958300000016812674160819152776_);}
	.st3{fill:url(#SVGID_00000059286512005563651980000017603604682099758007_);}
	.st4{fill:#312880;}
	.st5{font-family:'Tenon-Bold';}
	.st6{font-size:49.4438px;}
	.st7{fill:url(#SVGID_00000036216772204198769630000003072613878103321531_);}
	.st8{fill:#7272F6;}
	.st9{fill:url(#SVGID_00000112617964777169523190000012807218142345050516_);}
	.st10{fill:url(#SVGID_00000028296878732233292300000009996715357256408495_);}
	.st11{fill:url(#SVGID_00000028303876494287142670000009306133412345144221_);}
	.st12{opacity:0.75;fill:#AAAAFE;}
	.st13{fill:url(#SVGID_00000134932934042784529710000007017717992543228548_);}
	.st14{fill:url(#SVGID_00000157282123165669454990000003411338638210591628_);}
	.st15{fill:url(#SVGID_00000138542506529842816610000012157202550424882858_);}
	.st16{fill:url(#SVGID_00000124847869178163376890000005507776690121732482_);}
	.st17{fill:url(#SVGID_00000119089114631006143280000007923321560983083187_);}
	.st18{fill:url(#SVGID_00000022539254801421108720000010592123505896585362_);}
	.st19{fill:url(#SVGID_00000051365546510429876950000016626945024427558804_);}
	.st20{fill:url(#SVGID_00000034082353660223623150000017627904080167369146_);}
	.st21{fill:#E8EBF9;}
	.st22{fill:url(#SVGID_00000070802578558574952980000009686405551569797041_);}
	.st23{fill:url(#SVGID_00000181778510495155429800000017353849863732169659_);}
	.st24{fill:url(#SVGID_00000100347350572582697350000008381175554979431325_);}
	.st25{fill:url(#SVGID_00000075860303159622496870000002838991964705796495_);}
	.st26{fill:url(#SVGID_00000042717405445856973900000003453312019400836514_);}
	.st27{fill:url(#SVGID_00000128484690945298192350000001704907169612831915_);}
	.st28{fill:url(#SVGID_00000172401049172800999050000008589563411053786254_);}
	.st29{fill:url(#SVGID_00000057831410123862806080000016869476158488661913_);}
	.st30{fill:url(#SVGID_00000154391501207019068750000010717599478635720326_);}
	.st31{fill:url(#SVGID_00000049940638661793346440000008658640472267443388_);}
	.st32{fill:url(#SVGID_00000029734523288377628570000004369015786113844124_);}
	.st33{fill:url(#SVGID_00000052086077965498073680000001830298873923704207_);}
	.st34{fill:url(#SVGID_00000088844310832839397880000004828973916995270812_);}
	.st35{fill:#3CB8C0;}
	.st36{fill:url(#SVGID_00000138569513698862045060000012064309044836372654_);}
	.st37{fill:url(#SVGID_00000034063454149215487420000013105099227623368101_);}
	.st38{fill:url(#SVGID_00000049205958950717872280000008477505785463925424_);}
	.st39{fill:#E8EBFA;}
	.st40{fill:url(#SVGID_00000023994222521863670720000012690016286299516300_);}
	.st41{fill:url(#SVGID_00000137100596398682874700000015565277976779241121_);}
	.st42{fill:url(#SVGID_00000145045172562886142550000016388147315812869821_);}
	.st43{fill:url(#SVGID_00000014634303311837149830000013563242113734203043_);}
	.st44{fill:url(#SVGID_00000047059141501584555210000010422003510690466702_);}
	.st45{fill:url(#SVGID_00000168079282725129854070000005337612878986155964_);}
	.st46{fill:url(#SVGID_00000080903700799746515160000010122003715364057014_);}
	.st47{fill:url(#SVGID_00000041295990774336607650000011338582684311512449_);}
	.st48{fill:url(#SVGID_00000163767019098379975230000001697254313106603180_);}
	.st49{fill:url(#SVGID_00000118372930017291482420000002769232881921400226_);}
	.st50{fill:#FEF7F8;}
	.st51{fill:url(#SVGID_00000049223927202491456890000011799976609129474956_);}
</style>
<g>
	<g>
		<g>
			
				<image style="overflow:visible;opacity:0.4;" width="1210" height="1018" xlink:href="92FDCA67.png"  transform="matrix(0.24 0 0 0.24 60.0204 34.1004)">
			</image>
			<g>
				<linearGradient id="SVGID_1_" gradientUnits="userSpaceOnUse" x1="202.2054" y1="276.5098" x2="202.2054" y2="68.3176">
					<stop  offset="0" style="stop-color:#D6E1FE;stop-opacity:0.6"/>
					<stop  offset="1" style="stop-color:#F5F7F9"/>
				</linearGradient>
				<path class="st0" d="M323,254.7H81.5c-3.4,0-6.1-2.7-6.1-6.1V65.1c0-10,8.1-18.1,18.1-18.1H311c10,0,18.1,8.1,18.1,18.1v183.6
					C329,252,326.3,254.7,323,254.7z"/>
			</g>
		</g>
		<g>
			
				<linearGradient id="SVGID_00000160876733874424627270000009638054123524179092_" gradientUnits="userSpaceOnUse" x1="284.661" y1="65.4741" x2="279.7889" y2="58.7392">
				<stop  offset="2.536774e-04" style="stop-color:#312880"/>
				<stop  offset="0.912" style="stop-color:#E62883"/>
			</linearGradient>
			<path style="fill:url(#SVGID_00000160876733874424627270000009638054123524179092_);" d="M284.8,60.7c0,2-1.6,3.6-3.6,3.6
				c-2,0-3.6-1.6-3.6-3.6c0-2,1.6-3.6,3.6-3.6C283.2,57.2,284.8,58.8,284.8,60.7z"/>
			
				<linearGradient id="SVGID_00000036971381755664579020000007424480548151874691_" gradientUnits="userSpaceOnUse" x1="297.3428" y1="65.4741" x2="292.4707" y2="58.7392">
				<stop  offset="2.536774e-04" style="stop-color:#312880"/>
				<stop  offset="0.912" style="stop-color:#E62883"/>
			</linearGradient>
			<path style="fill:url(#SVGID_00000036971381755664579020000007424480548151874691_);" d="M297.5,60.7c0,2-1.6,3.6-3.6,3.6
				c-2,0-3.6-1.6-3.6-3.6c0-2,1.6-3.6,3.6-3.6C295.9,57.2,297.5,58.8,297.5,60.7z"/>
			
				<linearGradient id="SVGID_00000039134733422656869470000003550941793755844530_" gradientUnits="userSpaceOnUse" x1="309.6664" y1="65.4742" x2="304.7943" y2="58.7391">
				<stop  offset="2.536774e-04" style="stop-color:#312880"/>
				<stop  offset="0.912" style="stop-color:#E62883"/>
			</linearGradient>
			<path style="fill:url(#SVGID_00000039134733422656869470000003550941793755844530_);" d="M309.8,60.7c0,2-1.6,3.6-3.6,3.6
				c-2,0-3.6-1.6-3.6-3.6c0-2,1.6-3.6,3.6-3.6C308.2,57.2,309.8,58.8,309.8,60.7z"/>
		</g>
		<g>
			<text transform="matrix(1 0 0 1 128.4123 150.9609)" class="st4 st5 st6">UI / UX</text>
		</g>
		<g>
			
				<image style="overflow:visible;opacity:0.4;" width="930" height="189" xlink:href="92FDCA65.png"  transform="matrix(0.24 0 0 0.24 92.16 71.04)">
			</image>
			<g>
				
					<linearGradient id="SVGID_00000003813470888202897440000011455108273372568969_" gradientUnits="userSpaceOnUse" x1="202.2054" y1="109.5529" x2="202.2054" y2="83.089">
					<stop  offset="0" style="stop-color:#D6E1FE;stop-opacity:0"/>
					<stop  offset="1" style="stop-color:#FFFFFF"/>
				</linearGradient>
				<path style="fill:url(#SVGID_00000003813470888202897440000011455108273372568969_);" d="M291.3,98.6H113.1
					c-4.8,0-8.8-3.9-8.8-8.8l0,0c0-4.8,3.9-8.8,8.8-8.8h178.3c4.8,0,8.8,3.9,8.8,8.8l0,0C300.1,94.7,296.2,98.6,291.3,98.6z"/>
			</g>
		</g>
		<path class="st8" d="M286.2,94.1l-2.7-3c1.2-1.5,1.2-3.7-0.2-5.3c-1.5-1.7-4.1-1.9-5.8-0.4c-1.7,1.5-1.9,4.1-0.4,5.8
			c1.3,1.5,3.5,1.8,5.2,0.8l2.7,3c0.3,0.3,0.8,0.3,1.1,0.1S286.4,94.4,286.2,94.1z M278.1,90.4c-1-1.2-0.9-3,0.2-4
			c1.2-1,3-0.9,4,0.2c1,1.2,0.9,3-0.2,4C281,91.7,279.1,91.6,278.1,90.4z"/>
		<g>
			
				<image style="overflow:visible;opacity:0.4;" width="992" height="404" xlink:href="92FDCA6B.png"  transform="matrix(0.24 0 0 0.24 84.72 160.8)">
			</image>
			<g>
				<g>
					
						<linearGradient id="SVGID_00000038386786095123353490000016391954661685451946_" gradientUnits="userSpaceOnUse" x1="131.0286" y1="274.9325" x2="129.7054" y2="191.571">
						<stop  offset="0" style="stop-color:#D6E1FE;stop-opacity:0"/>
						<stop  offset="1" style="stop-color:#F5F7F9"/>
					</linearGradient>
					<path style="fill:url(#SVGID_00000038386786095123353490000016391954661685451946_);" d="M154.8,240.1H105c-4.4,0-8-3.6-8-8
						v-53.2c0-4.4,3.6-8,8-8h49.8c4.4,0,8,3.6,8,8v53.2C162.8,236.5,159.2,240.1,154.8,240.1z"/>
					
						<linearGradient id="SVGID_00000142885361082552237720000003659974843418409640_" gradientUnits="userSpaceOnUse" x1="203.1191" y1="273.7882" x2="201.7959" y2="190.4267">
						<stop  offset="0" style="stop-color:#D6E1FE;stop-opacity:0"/>
						<stop  offset="1" style="stop-color:#F5F7F9"/>
					</linearGradient>
					<path style="fill:url(#SVGID_00000142885361082552237720000003659974843418409640_);" d="M226.9,240.1h-49.8c-4.4,0-8-3.6-8-8
						v-53.2c0-4.4,3.6-8,8-8h49.8c4.4,0,8,3.6,8,8v53.2C234.9,236.5,231.3,240.1,226.9,240.1z"/>
					
						<linearGradient id="SVGID_00000022541542893086687140000003776818313127835269_" gradientUnits="userSpaceOnUse" x1="275.5514" y1="272.6385" x2="274.2281" y2="189.277">
						<stop  offset="0" style="stop-color:#D6E1FE;stop-opacity:0"/>
						<stop  offset="1" style="stop-color:#F5F7F9"/>
					</linearGradient>
					<path style="fill:url(#SVGID_00000022541542893086687140000003776818313127835269_);" d="M299.4,240.1h-49.8c-4.4,0-8-3.6-8-8
						v-53.2c0-4.4,3.6-8,8-8h49.8c4.4,0,8,3.6,8,8v53.2C307.4,236.5,303.8,240.1,299.4,240.1z"/>
				</g>
			</g>
		</g>
		<g>
			<rect x="105.1" y="216.6" class="st12" width="24.4" height="2.9"/>
			<rect x="105.1" y="222.8" class="st12" width="48.8" height="2.9"/>
		</g>
		<g>
			<rect x="177.8" y="216.6" class="st12" width="24.4" height="2.9"/>
			<rect x="177.8" y="222.8" class="st12" width="48.8" height="2.9"/>
		</g>
		<g>
			<rect x="248.9" y="216.6" class="st12" width="24.4" height="2.9"/>
			<rect x="248.9" y="222.8" class="st12" width="48.8" height="2.9"/>
		</g>
		<g>
			
				<linearGradient id="SVGID_00000181084154136993145160000015701149543486601375_" gradientUnits="userSpaceOnUse" x1="129.0082" y1="231.5117" x2="130.3314" y2="177.9224">
				<stop  offset="0" style="stop-color:#FEAF82;stop-opacity:0"/>
				<stop  offset="1" style="stop-color:#FE7C84"/>
			</linearGradient>
			<path style="fill:url(#SVGID_00000181084154136993145160000015701149543486601375_);" d="M150.9,209.7H109
				c-2.6,0-4.6-2.1-4.6-4.6v-21.4c0-2.6,2.1-4.6,4.6-4.6h41.9c2.6,0,4.6,2.1,4.6,4.6V205C155.5,207.6,153.4,209.7,150.9,209.7z"/>
			
				<linearGradient id="SVGID_00000108274049249136468890000010760347608663280063_" gradientUnits="userSpaceOnUse" x1="104.344" y1="194.3477" x2="155.5076" y2="194.3477">
				<stop  offset="2.536774e-04" style="stop-color:#312880"/>
				<stop  offset="0.912" style="stop-color:#3CB8C0"/>
			</linearGradient>
			<path style="fill:url(#SVGID_00000108274049249136468890000010760347608663280063_);" d="M150.9,209.7H109
				c-2.6,0-4.6-2.1-4.6-4.6v-21.4c0-2.6,2.1-4.6,4.6-4.6h41.9c2.6,0,4.6,2.1,4.6,4.6V205C155.5,207.6,153.4,209.7,150.9,209.7z"/>
		</g>
		<g>
			
				<linearGradient id="SVGID_00000029028744691061779360000015119115314422146693_" gradientUnits="userSpaceOnUse" x1="201.1169" y1="231.5117" x2="202.44" y2="177.9224">
				<stop  offset="0" style="stop-color:#D6E1FE;stop-opacity:0"/>
				<stop  offset="1" style="stop-color:#6B6BEE"/>
			</linearGradient>
			<path style="fill:url(#SVGID_00000029028744691061779360000015119115314422146693_);" d="M223,209.7h-41.9
				c-2.6,0-4.6-2.1-4.6-4.6v-21.4c0-2.6,2.1-4.6,4.6-4.6H223c2.6,0,4.6,2.1,4.6,4.6V205C227.6,207.6,225.5,209.7,223,209.7z"/>
			
				<linearGradient id="SVGID_00000027578366836567443810000010160114436698921089_" gradientUnits="userSpaceOnUse" x1="176.4527" y1="194.3477" x2="227.6163" y2="194.3477">
				<stop  offset="2.536774e-04" style="stop-color:#312880"/>
				<stop  offset="0.912" style="stop-color:#E62883"/>
			</linearGradient>
			<path style="fill:url(#SVGID_00000027578366836567443810000010160114436698921089_);" d="M223,209.7h-41.9
				c-2.6,0-4.6-2.1-4.6-4.6v-21.4c0-2.6,2.1-4.6,4.6-4.6H223c2.6,0,4.6,2.1,4.6,4.6V205C227.6,207.6,225.5,209.7,223,209.7z"/>
		</g>
		<g>
			
				<linearGradient id="SVGID_00000088131121785586130290000008919539160313545641_" gradientUnits="userSpaceOnUse" x1="273.5674" y1="231.5117" x2="274.8905" y2="177.9224">
				<stop  offset="0" style="stop-color:#5BDDEA;stop-opacity:0"/>
				<stop  offset="1" style="stop-color:#61F6EC"/>
			</linearGradient>
			<path style="fill:url(#SVGID_00000088131121785586130290000008919539160313545641_);" d="M295.4,209.7h-41.9
				c-2.6,0-4.6-2.1-4.6-4.6v-21.4c0-2.6,2.1-4.6,4.6-4.6h41.9c2.6,0,4.6,2.1,4.6,4.6V205C300.1,207.6,298,209.7,295.4,209.7z"/>
			
				<linearGradient id="SVGID_00000032644637549547761380000010431171988557662650_" gradientUnits="userSpaceOnUse" x1="248.9032" y1="194.3477" x2="300.0668" y2="194.3477">
				<stop  offset="2.536774e-04" style="stop-color:#312880"/>
				<stop  offset="0.912" style="stop-color:#1C1339"/>
			</linearGradient>
			<path style="fill:url(#SVGID_00000032644637549547761380000010431171988557662650_);" d="M295.4,209.7h-41.9
				c-2.6,0-4.6-2.1-4.6-4.6v-21.4c0-2.6,2.1-4.6,4.6-4.6h41.9c2.6,0,4.6,2.1,4.6,4.6V205C300.1,207.6,298,209.7,295.4,209.7z"/>
		</g>
	</g>
	<g>
		<g>
			<g>
				<g>
					
						<image style="overflow:visible;opacity:0.5;" width="426" height="513" xlink:href="92FDCA6D.png"  transform="matrix(0.24 0 0 0.24 0 29.52)">
					</image>
					<g>
						
							<linearGradient id="SVGID_00000103244253638205522370000003932047343160243092_" gradientUnits="userSpaceOnUse" x1="49.1737" y1="169.527" x2="48.6434" y2="54.4426">
							<stop  offset="0" style="stop-color:#D6E1FE;stop-opacity:0.6"/>
							<stop  offset="1" style="stop-color:#F5F7F9"/>
						</linearGradient>
						<path style="fill:url(#SVGID_00000103244253638205522370000003932047343160243092_);" d="M76.9,134.3H20.7
							c-5.1,0-9.2-4.1-9.2-9.2V48c0-5.1,4.1-9.2,9.2-9.2h56.2c5.1,0,9.2,4.1,9.2,9.2v77.1C86.1,130.2,82,134.3,76.9,134.3z"/>
					</g>
				</g>
				<g>
					
						<image style="overflow:visible;opacity:0.5;" width="388" height="475" xlink:href="92FDCA6F.png"  transform="matrix(0.24 0 0 0.24 4.5396 33.3396)">
					</image>
					<g>
						
							<radialGradient id="SVGID_00000016045907674931509770000004924434943395258044_" cx="22.4802" cy="44.3853" r="78.0418" gradientUnits="userSpaceOnUse">
							<stop  offset="0" style="stop-color:#FEAD6E"/>
							<stop  offset="1" style="stop-color:#FE5D85;stop-opacity:0"/>
						</radialGradient>
						<path style="fill:url(#SVGID_00000016045907674931509770000004924434943395258044_);" d="M76.9,134.3H20.7
							c-5.1,0-9.2-4.1-9.2-9.2V48c0-5.1,4.1-9.2,9.2-9.2h56.2c5.1,0,9.2,4.1,9.2,9.2v77.1C86.1,130.2,82,134.3,76.9,134.3z"/>
					</g>
				</g>
			</g>
			<g>
				<g>
					<path class="st21" d="M48.8,52C37,52,27.4,61.5,27.4,73.4c0,6.1,2.5,11.6,6.6,15.5c3.9,3.7,9.1,6,14.8,6
						c11.8,0,21.4-9.6,21.4-21.4C70.2,61.5,60.6,52,48.8,52z M48.8,91.5c-4.9,0-9.3-1.9-12.6-5c-3.4-3.3-5.6-7.9-5.6-13.1
						c0-10,8.1-18.1,18.1-18.1c10,0,18.1,8.1,18.1,18.1C66.9,83.4,58.8,91.5,48.8,91.5z"/>
					
						<linearGradient id="SVGID_00000145739813376594591280000002697081648743427972_" gradientUnits="userSpaceOnUse" x1="37.7574" y1="65.9361" x2="63.5598" y2="83.3582">
						<stop  offset="2.536774e-04" style="stop-color:#312880"/>
						<stop  offset="0.912" style="stop-color:#E62883"/>
					</linearGradient>
					<path style="fill:url(#SVGID_00000145739813376594591280000002697081648743427972_);" d="M70.2,73.4c0,11.8-9.6,21.4-21.4,21.4
						c-5.8,0-11-2.3-14.8-6l2.3-2.4c3.3,3.1,7.7,5,12.6,5c10,0,18.1-8.1,18.1-18.1c0-10-8.1-18.1-18.1-18.1V52
						C60.6,52,70.2,61.5,70.2,73.4z"/>
					<g>
						
							<linearGradient id="SVGID_00000031184797381194866660000011078689335399469718_" gradientUnits="userSpaceOnUse" x1="37.1726" y1="73.3864" x2="61.2903" y2="73.3864">
							<stop  offset="2.536774e-04" style="stop-color:#312880"/>
							<stop  offset="0.912" style="stop-color:#E62883"/>
						</linearGradient>
						<path style="fill:url(#SVGID_00000031184797381194866660000011078689335399469718_);" d="M38.4,76.8c-0.5,0-0.9-0.1-1.2-0.2
							c-0.3-0.1-0.5-0.3-0.6-0.6c-0.1-0.2-0.2-0.4-0.2-0.7c0-0.2,0-0.4,0-0.6v-2.7c0-0.2,0-0.3,0-0.6c0-0.2,0.1-0.5,0.2-0.7
							c0.1-0.2,0.3-0.4,0.6-0.6c0.3-0.2,0.7-0.2,1.2-0.2h2.1c0.6,0,1.1,0,1.4,0.1c0.3,0,0.5,0.1,0.6,0.1c0.1,0.1,0.2,0.1,0.2,0.1
							l-0.2,0.9c-0.1,0-0.5,0-1.1-0.1c-0.7,0-1.5,0-2.7,0c-0.4,0-0.6,0.1-0.7,0.3c-0.1,0.2-0.2,0.4-0.2,0.6v0.7c0.1,0,0.3,0,0.6-0.1
							c0.3,0,0.8,0,1.4,0H41c0.6,0,1,0.1,1.3,0.2c0.3,0.1,0.5,0.3,0.6,0.6c0.1,0.3,0.2,0.6,0.2,1v0.3c0,0.2,0,0.5-0.1,0.7
							c0,0.2-0.1,0.5-0.2,0.7c-0.1,0.2-0.3,0.4-0.6,0.5c-0.3,0.1-0.7,0.2-1.2,0.2H38.4z M38.7,75.7h2c0.3,0,0.4,0,0.6-0.1
							c0.1-0.1,0.2-0.2,0.3-0.3c0-0.1,0.1-0.3,0.1-0.4v-0.6c0-0.2,0-0.4-0.1-0.5c-0.1-0.1-0.3-0.2-0.6-0.2h-3v1.3
							c0,0.2,0.1,0.4,0.2,0.6C38.1,75.6,38.4,75.7,38.7,75.7z"/>
						
							<linearGradient id="SVGID_00000174563883825720938010000007693386366765660556_" gradientUnits="userSpaceOnUse" x1="37.1726" y1="73.3864" x2="61.2903" y2="73.3864">
							<stop  offset="2.536774e-04" style="stop-color:#312880"/>
							<stop  offset="0.912" style="stop-color:#E62883"/>
						</linearGradient>
						<path style="fill:url(#SVGID_00000174563883825720938010000007693386366765660556_);" d="M46.4,76.8c-0.5,0-0.9,0-1.2-0.1
							c-0.3,0-0.5-0.1-0.7-0.2c-0.1-0.1-0.3-0.1-0.3-0.1l0.4-0.9c0.2,0,0.6,0,1.2,0.1c0.6,0,1.6,0.1,2.9,0.1c0.3,0,0.6-0.1,0.7-0.2
							c0.1-0.1,0.2-0.3,0.2-0.6v-0.4c0-0.2-0.1-0.4-0.2-0.6c-0.1-0.2-0.4-0.2-0.7-0.2h-3.2l-0.9,0.1V70h5.2c0.4,0,0.7,0,0.8,0
							c0.2,0,0.2,0.1,0.2,0.1l-0.2,1H46v1.6c0.1,0,0.3,0,0.6-0.1c0.3,0,0.7,0,1.2,0h0.9c0.9,0,1.5,0.2,1.8,0.5
							c0.3,0.3,0.5,0.8,0.5,1.4v0.3c0,0.2,0,0.5-0.1,0.7c0,0.2-0.1,0.5-0.3,0.7c-0.1,0.2-0.3,0.4-0.6,0.5c-0.3,0.1-0.7,0.2-1.2,0.2
							H46.4z"/>
						
							<linearGradient id="SVGID_00000168097499674345068460000012504804178859962754_" gradientUnits="userSpaceOnUse" x1="37.1726" y1="73.3864" x2="61.2903" y2="73.3864">
							<stop  offset="2.536774e-04" style="stop-color:#312880"/>
							<stop  offset="0.912" style="stop-color:#E62883"/>
						</linearGradient>
						<path style="fill:url(#SVGID_00000168097499674345068460000012504804178859962754_);" d="M53.4,73.2c-0.3,0-0.6,0-0.7-0.1
							c-0.1-0.1-0.2-0.2-0.3-0.4c0-0.2-0.1-0.3-0.1-0.5V71c0-0.2,0-0.3,0-0.5c0-0.2,0.1-0.3,0.3-0.4c0.1-0.1,0.4-0.2,0.7-0.2h1.3
							c0.3,0,0.6,0.1,0.7,0.2s0.2,0.2,0.3,0.4c0,0.2,0.1,0.3,0.1,0.5v1.2c0,0.2,0,0.4-0.1,0.5c0,0.2-0.1,0.3-0.3,0.4
							s-0.4,0.1-0.7,0.1H53.4z M53.7,72.3h0.8c0.1,0,0.1,0,0.2-0.1c0,0,0.1-0.1,0.1-0.2v-1c0-0.1,0-0.1-0.1-0.2c0,0-0.1-0.1-0.2-0.1
							h-0.8c-0.1,0-0.2,0-0.2,0.1c0,0,0,0.1,0,0.2v1c0,0.1,0,0.1,0,0.2C53.5,72.3,53.6,72.3,53.7,72.3z M54.2,76.8l3.6-6.2l0.1-0.6
							h1.5l-3.6,6.2l-0.1,0.6H54.2z M59,76.8c-0.3,0-0.6,0-0.7-0.1c-0.1-0.1-0.2-0.2-0.3-0.4c0-0.2-0.1-0.3-0.1-0.5v-1.2
							c0-0.2,0-0.3,0-0.5c0-0.2,0.1-0.3,0.3-0.4c0.1-0.1,0.4-0.2,0.7-0.2h1.3c0.3,0,0.6,0.1,0.7,0.2c0.1,0.1,0.2,0.2,0.3,0.4
							c0,0.2,0.1,0.3,0.1,0.5v1.2c0,0.2,0,0.4-0.1,0.5c0,0.2-0.1,0.3-0.3,0.4c-0.1,0.1-0.4,0.1-0.7,0.1H59z M59.2,75.9H60
							c0.1,0,0.1,0,0.2-0.1c0,0,0.1-0.1,0.1-0.2v-1c0-0.1,0-0.1-0.1-0.2c0,0-0.1-0.1-0.2-0.1h-0.8c-0.1,0-0.2,0-0.2,0.1
							c0,0,0,0.1,0,0.2v1c0,0.1,0,0.1,0,0.2C59.1,75.9,59.1,75.9,59.2,75.9z"/>
					</g>
				</g>
				<path class="st4" d="M69.2,107.4H28.4c-1.7,0-3.1-1.4-3.1-3.1l0,0c0-1.7,1.4-3.1,3.1-3.1h40.9c1.7,0,3.1,1.4,3.1,3.1l0,0
					C72.3,106,70.9,107.4,69.2,107.4z"/>
				<rect x="30" y="114.5" class="st12" width="37.6" height="2.2"/>
				<rect x="34.5" y="119.6" class="st12" width="28.6" height="2.2"/>
			</g>
		</g>
		<g>
			<g>
				<g>
					<g>
						<g>
							
								<image style="overflow:visible;opacity:0.5;" width="330" height="236" xlink:href="92FDCA6C.png"  transform="matrix(0.24 0 0 0.24 328.08 220.08)">
							</image>
							<g>
								
									<linearGradient id="SVGID_00000043415339302989971510000007770810076657540777_" gradientUnits="userSpaceOnUse" x1="365.4697" y1="269.0183" x2="365.3089" y2="234.1233">
									<stop  offset="0" style="stop-color:#D6E1FE;stop-opacity:0.6"/>
									<stop  offset="1" style="stop-color:#F5F7F9"/>
								</linearGradient>
								<path style="fill:url(#SVGID_00000043415339302989971510000007770810076657540777_);" d="M376.7,258.3H354
									c-8,0-14.5-6.5-14.5-14.5l0,0c0-8,6.5-14.5,14.5-14.5h22.7c8,0,14.5,6.5,14.5,14.5l0,0C391.1,251.8,384.7,258.3,376.7,258.3
									z"/>
							</g>
						</g>
						<g>
							
								<image style="overflow:visible;opacity:0.5;" width="292" height="198" xlink:href="92FDCA64.png"  transform="matrix(0.24 0 0 0.24 332.6196 223.8996)">
							</image>
							<g>
								
									<radialGradient id="SVGID_00000145763089735771127500000007592363765553390257_" cx="340.8736" cy="229.0983" r="43.3112" gradientUnits="userSpaceOnUse">
									<stop  offset="0" style="stop-color:#FEAD6E"/>
									<stop  offset="1" style="stop-color:#FE5D85;stop-opacity:0"/>
								</radialGradient>
								<path style="fill:url(#SVGID_00000145763089735771127500000007592363765553390257_);" d="M376.7,258.3H354
									c-8,0-14.5-6.5-14.5-14.5l0,0c0-8,6.5-14.5,14.5-14.5h22.7c8,0,14.5,6.5,14.5,14.5l0,0C391.1,251.8,384.7,258.3,376.7,258.3
									z"/>
							</g>
						</g>
						<g>
							
								<image style="overflow:visible;opacity:0.5;" width="261" height="166" xlink:href="92FDCA66.png"  transform="matrix(0.24 0 0 0.24 336.4596 227.7396)">
							</image>
							<g>
								
									<linearGradient id="SVGID_00000160879359978656856630000007364723749853003141_" gradientUnits="userSpaceOnUse" x1="364.5745" y1="266.3008" x2="365.626" y2="236.0179">
									<stop  offset="0" style="stop-color:#D6E1FE"/>
									<stop  offset="1" style="stop-color:#F5F7F9"/>
								</linearGradient>
								<path style="fill:url(#SVGID_00000160879359978656856630000007364723749853003141_);" d="M354,254.6
									c-5.9,0-10.7-4.8-10.7-10.7c0-5.9,4.8-10.7,10.7-10.7h22.7c5.9,0,10.7,4.8,10.7,10.7c0,5.9-4.8,10.7-10.7,10.7H354z"/>
							</g>
						</g>
					</g>
				</g>
				
					<linearGradient id="SVGID_00000026146959264762297380000001910633942578824120_" gradientUnits="userSpaceOnUse" x1="358.9777" y1="251.9509" x2="351.7001" y2="239.3806">
					<stop  offset="2.536774e-04" style="stop-color:#312880"/>
					<stop  offset="0.912" style="stop-color:#E62883"/>
				</linearGradient>
				<circle style="fill:url(#SVGID_00000026146959264762297380000001910633942578824120_);" cx="354.3" cy="243.9" r="8.6"/>
			</g>
			<g>
				<g>
					<g>
						<g>
							
								<image style="overflow:visible;opacity:0.5;" width="330" height="236" xlink:href="92FDCA62.png"  transform="matrix(0.24 0 0 0.24 328.08 256.08)">
							</image>
							<g>
								
									<linearGradient id="SVGID_00000067194980654096256890000013424556608456933796_" gradientUnits="userSpaceOnUse" x1="365.4697" y1="304.9489" x2="365.3089" y2="270.0539">
									<stop  offset="0" style="stop-color:#D6E1FE;stop-opacity:0.6"/>
									<stop  offset="1" style="stop-color:#F5F7F9"/>
								</linearGradient>
								<path style="fill:url(#SVGID_00000067194980654096256890000013424556608456933796_);" d="M376.7,294.2H354
									c-8,0-14.5-6.5-14.5-14.5v0c0-8,6.5-14.5,14.5-14.5h22.7c8,0,14.5,6.5,14.5,14.5v0C391.1,287.8,384.7,294.2,376.7,294.2z"/>
							</g>
						</g>
						<g>
							
								<image style="overflow:visible;opacity:0.5;" width="292" height="198" xlink:href="3EAE40E4.png"  transform="matrix(0.24 0 0 0.24 332.6196 259.8996)">
							</image>
							<g>
								
									<radialGradient id="SVGID_00000039121244366157283560000014253219518521692842_" cx="340.8736" cy="265.0289" r="43.3112" gradientUnits="userSpaceOnUse">
									<stop  offset="0" style="stop-color:#FEAD6E"/>
									<stop  offset="1" style="stop-color:#FE5D85;stop-opacity:0"/>
								</radialGradient>
								<path style="fill:url(#SVGID_00000039121244366157283560000014253219518521692842_);" d="M376.7,294.2H354
									c-8,0-14.5-6.5-14.5-14.5v0c0-8,6.5-14.5,14.5-14.5h22.7c8,0,14.5,6.5,14.5,14.5v0C391.1,287.8,384.7,294.2,376.7,294.2z"/>
							</g>
						</g>
						<g>
							
								<image style="overflow:visible;opacity:0.5;" width="261" height="166" xlink:href="3EAE40E3.png"  transform="matrix(0.24 0 0 0.24 336.4596 263.7396)">
							</image>
							<g>
								<path class="st4" d="M354,290.5c-5.9,0-10.7-4.8-10.7-10.7c0-5.9,4.8-10.7,10.7-10.7h22.7c5.9,0,10.7,4.8,10.7,10.7
									c0,5.9-4.8,10.7-10.7,10.7H354z"/>
							</g>
						</g>
					</g>
				</g>
				
					<linearGradient id="SVGID_00000013893516979038534750000004154821037670276530_" gradientUnits="userSpaceOnUse" x1="381.2239" y1="287.8816" x2="373.9463" y2="275.3112">
					<stop  offset="2.536774e-04" style="stop-color:#312880"/>
					<stop  offset="0.912" style="stop-color:#3CB8C0"/>
				</linearGradient>
				<circle style="fill:url(#SVGID_00000013893516979038534750000004154821037670276530_);" cx="376.5" cy="279.8" r="8.6"/>
			</g>
		</g>
		<g>
			<g>
				<g>
					<g>
						
							<image style="overflow:visible;opacity:0.5;" width="773" height="190" xlink:href="3EAE40FC.png"  transform="matrix(0.24 0 0 0.24 95.28 268.32)">
						</image>
						<g>
							
								<linearGradient id="SVGID_00000081650153163077538300000011951840864097732508_" gradientUnits="userSpaceOnUse" x1="185.7369" y1="302.6967" x2="185.6333" y2="280.225">
								<stop  offset="0" style="stop-color:#D6E1FE;stop-opacity:0.6"/>
								<stop  offset="1" style="stop-color:#F5F7F9"/>
							</linearGradient>
							<path style="fill:url(#SVGID_00000081650153163077538300000011951840864097732508_);" d="M255.6,295.5H115.7c-5,0-9-4-9-9
								l0,0c0-5,4-9,9-9h139.8c5,0,9,4,9,9l0,0C264.6,291.5,260.6,295.5,255.6,295.5z"/>
						</g>
					</g>
					<g>
						
							<image style="overflow:visible;opacity:0.5;" width="735" height="152" xlink:href="3EAE40FF.png"  transform="matrix(0.24 0 0 0.24 99.8196 272.1396)">
						</image>
						<g>
							
								<radialGradient id="SVGID_00000132047072857280952080000013351141136753871253_" cx="174.0966" cy="248.9296" r="100.1643" gradientUnits="userSpaceOnUse">
								<stop  offset="0" style="stop-color:#FEAD6E"/>
								<stop  offset="1" style="stop-color:#FE5D85;stop-opacity:0"/>
							</radialGradient>
							<path style="fill:url(#SVGID_00000132047072857280952080000013351141136753871253_);" d="M255.6,295.5H115.7c-5,0-9-4-9-9
								l0,0c0-5,4-9,9-9h139.8c5,0,9,4,9,9l0,0C264.6,291.5,260.6,295.5,255.6,295.5z"/>
						</g>
					</g>
					<path class="st4" d="M262.3,286.5c0,3.7-3,6.7-6.7,6.7H115.8c-3.7,0-6.7-3-6.7-6.7c0-3.7,3-6.7,6.7-6.7h139.8
						C259.3,279.8,262.3,282.8,262.3,286.5z"/>
				</g>
			</g>
			<path class="st35" d="M217,286.5c0,3.7-3,6.7-6.7,6.7h-94.5c-3.7,0-6.7-3-6.7-6.7c0-3.7,3-6.7,6.7-6.7h94.5
				C214,279.8,217,282.8,217,286.5z"/>
		</g>
		<g>
			<g>
				<g>
					
						<image style="overflow:visible;opacity:0.5;" width="459" height="459" xlink:href="3EAE40FD.png"  transform="matrix(0.24 0 0 0.24 292.32 73.2)">
					</image>
					<g>
						
							<radialGradient id="SVGID_00000173163084238915899680000006413022407886411413_" cx="332.2186" cy="99.9158" r="104.7518" gradientUnits="userSpaceOnUse">
							<stop  offset="0" style="stop-color:#F5F7F9"/>
							<stop  offset="1" style="stop-color:#D6E1FE;stop-opacity:0.6"/>
						</radialGradient>
						<circle style="fill:url(#SVGID_00000173163084238915899680000006413022407886411413_);" cx="345" cy="123.7" r="41.2"/>
					</g>
				</g>
				
					<radialGradient id="SVGID_00000089536025557976288400000002099774378810334143_" cx="324.7205" cy="97.3798" r="49.5724" gradientUnits="userSpaceOnUse">
					<stop  offset="0" style="stop-color:#FEAD6E"/>
					<stop  offset="1" style="stop-color:#FE5D85;stop-opacity:0"/>
				</radialGradient>
				<circle style="fill:url(#SVGID_00000089536025557976288400000002099774378810334143_);" cx="345" cy="123.7" r="41.2"/>
			</g>
			<g>
				
					<linearGradient id="SVGID_00000135663665138647289970000007891719812228600234_" gradientUnits="userSpaceOnUse" x1="357.6837" y1="141.6267" x2="331.4439" y2="104.5822">
					<stop  offset="2.536774e-04" style="stop-color:#312880"/>
					<stop  offset="0.912" style="stop-color:#E62883"/>
				</linearGradient>
				<path style="fill:url(#SVGID_00000135663665138647289970000007891719812228600234_);" d="M368.4,123.7c0,7.4-3.4,14-8.8,18.3
					c-4,3.2-9,5.1-14.6,5.1c-5.5,0-10.6-1.9-14.6-5.1c-5.4-4.3-8.8-10.9-8.8-18.3c0-12.9,10.5-23.4,23.4-23.4
					C357.9,100.4,368.4,110.8,368.4,123.7z"/>
				<circle class="st39" cx="345" cy="117.6" r="8.4"/>
				<path class="st39" d="M359.6,142c-4,3.2-9,5.1-14.6,5.1c-5.5,0-10.6-1.9-14.6-5.1c1.2-7,7.3-12.2,14.6-12.2
					C352.3,129.8,358.4,135.1,359.6,142z"/>
			</g>
		</g>
		<g>
			<g>
				<g>
					<g>
						<g>
							
								<image style="overflow:visible;opacity:0.5;" width="605" height="211" xlink:href="3EAE40E2.png"  transform="matrix(0.24 0 0 0.24 132 0)">
							</image>
							<g>
								
									<linearGradient id="SVGID_00000170989082565106592000000002262289612249565862_" gradientUnits="userSpaceOnUse" x1="202.2992" y1="41.0636" x2="202.1691" y2="12.8404">
									<stop  offset="0" style="stop-color:#D6E1FE;stop-opacity:0.6"/>
									<stop  offset="1" style="stop-color:#F5F7F9"/>
								</linearGradient>
								<path style="fill:url(#SVGID_00000170989082565106592000000002262289612249565862_);" d="M254.3,32.2H150.1
									c-3.7,0-6.7-3-6.7-6.7v-9.6c0-3.7,3-6.7,6.7-6.7h104.2c3.7,0,6.7,3,6.7,6.7v9.6C261,29.2,258,32.2,254.3,32.2z"/>
							</g>
						</g>
						<g>
							
								<image style="overflow:visible;opacity:0.5;" width="567" height="173" xlink:href="3EAE40E5.png"  transform="matrix(0.24 0 0 0.24 136.5396 3.8196)">
							</image>
							<g>
								
									<radialGradient id="SVGID_00000027600681562432145150000006226353920577081775_" cx="203.9296" cy="-25.4309" r="82.2779" gradientUnits="userSpaceOnUse">
									<stop  offset="0" style="stop-color:#FEAD6E"/>
									<stop  offset="1" style="stop-color:#FE5D85;stop-opacity:0"/>
								</radialGradient>
								<path style="fill:url(#SVGID_00000027600681562432145150000006226353920577081775_);" d="M254.3,32.2H150.1
									c-3.7,0-6.7-3-6.7-6.7v-9.6c0-3.7,3-6.7,6.7-6.7h104.2c3.7,0,6.7,3,6.7,6.7v9.6C261,29.2,258,32.2,254.3,32.2z"/>
							</g>
						</g>
					</g>
				</g>
			</g>
			<g>
				
					<linearGradient id="SVGID_00000035511605560478355740000010136957031117422504_" gradientUnits="userSpaceOnUse" x1="153.3037" y1="20.1631" x2="169.1029" y2="20.1631">
					<stop  offset="0" style="stop-color:#FFA670"/>
					<stop  offset="1" style="stop-color:#FED450"/>
				</linearGradient>
				<path style="fill:url(#SVGID_00000035511605560478355740000010136957031117422504_);" d="M162.2,13.2l1.5,3.1
					c0.2,0.3,0.5,0.6,0.9,0.6l3.4,0.5c1,0.1,1.3,1.3,0.6,2l-2.5,2.4c-0.3,0.3-0.4,0.7-0.3,1l0.6,3.4c0.2,0.9-0.8,1.7-1.7,1.2
					l-3.1-1.6c-0.3-0.2-0.7-0.2-1.1,0l-3.1,1.6c-0.9,0.4-1.8-0.3-1.7-1.2l0.6-3.4c0.1-0.4-0.1-0.8-0.3-1l-2.5-2.4
					c-0.7-0.7-0.3-1.8,0.6-2l3.4-0.5c0.4-0.1,0.7-0.3,0.9-0.6l1.5-3.1C160.6,12.4,161.8,12.4,162.2,13.2z"/>
				
					<linearGradient id="SVGID_00000116233934414388182280000009325909098448816014_" gradientUnits="userSpaceOnUse" x1="172.448" y1="20.1631" x2="188.2472" y2="20.1631">
					<stop  offset="0" style="stop-color:#FFA670"/>
					<stop  offset="1" style="stop-color:#FED450"/>
				</linearGradient>
				<path style="fill:url(#SVGID_00000116233934414388182280000009325909098448816014_);" d="M181.4,13.2l1.5,3.1
					c0.2,0.3,0.5,0.6,0.9,0.6l3.4,0.5c1,0.1,1.3,1.3,0.6,2l-2.5,2.4c-0.3,0.3-0.4,0.7-0.3,1l0.6,3.4c0.2,0.9-0.8,1.7-1.7,1.2
					l-3.1-1.6c-0.3-0.2-0.7-0.2-1.1,0l-3.1,1.6c-0.9,0.4-1.8-0.3-1.7-1.2l0.6-3.4c0.1-0.4-0.1-0.8-0.3-1l-2.5-2.4
					c-0.7-0.7-0.3-1.8,0.6-2l3.4-0.5c0.4-0.1,0.7-0.3,0.9-0.6l1.5-3.1C179.7,12.4,181,12.4,181.4,13.2z"/>
				
					<linearGradient id="SVGID_00000026855547628931881750000002475039336857400761_" gradientUnits="userSpaceOnUse" x1="192.3217" y1="20.1631" x2="208.1209" y2="20.1631">
					<stop  offset="0" style="stop-color:#FFA670"/>
					<stop  offset="1" style="stop-color:#FED450"/>
				</linearGradient>
				<path style="fill:url(#SVGID_00000026855547628931881750000002475039336857400761_);" d="M201.3,13.2l1.5,3.1
					c0.2,0.3,0.5,0.6,0.9,0.6l3.4,0.5c1,0.1,1.3,1.3,0.6,2l-2.5,2.4c-0.3,0.3-0.4,0.7-0.3,1l0.6,3.4c0.2,0.9-0.8,1.7-1.7,1.2
					l-3.1-1.6c-0.3-0.2-0.7-0.2-1.1,0l-3.1,1.6c-0.9,0.4-1.8-0.3-1.7-1.2l0.6-3.4c0.1-0.4-0.1-0.8-0.3-1l-2.5-2.4
					c-0.7-0.7-0.3-1.8,0.6-2l3.4-0.5c0.4-0.1,0.7-0.3,0.9-0.6l1.5-3.1C199.6,12.4,200.8,12.4,201.3,13.2z"/>
				
					<linearGradient id="SVGID_00000181052264707578408130000011638606701505867410_" gradientUnits="userSpaceOnUse" x1="211.4661" y1="20.1631" x2="227.2653" y2="20.1631">
					<stop  offset="0" style="stop-color:#FFA670"/>
					<stop  offset="1" style="stop-color:#FED450"/>
				</linearGradient>
				<path style="fill:url(#SVGID_00000181052264707578408130000011638606701505867410_);" d="M220.4,13.2l1.5,3.1
					c0.2,0.3,0.5,0.6,0.9,0.6l3.4,0.5c1,0.1,1.3,1.3,0.6,2l-2.5,2.4c-0.3,0.3-0.4,0.7-0.3,1l0.6,3.4c0.2,0.9-0.8,1.7-1.7,1.2
					l-3.1-1.6c-0.3-0.2-0.7-0.2-1.1,0l-3.1,1.6c-0.9,0.4-1.8-0.3-1.7-1.2l0.6-3.4c0.1-0.4-0.1-0.8-0.3-1l-2.5-2.4
					c-0.7-0.7-0.3-1.8,0.6-2l3.4-0.5c0.4-0.1,0.7-0.3,0.9-0.6l1.5-3.1C218.7,12.4,220,12.4,220.4,13.2z"/>
				
					<linearGradient id="SVGID_00000034808404236543605000000006066195368090478499_" gradientUnits="userSpaceOnUse" x1="232.9874" y1="20.1631" x2="248.7867" y2="20.1631">
					<stop  offset="0" style="stop-color:#FFA670"/>
					<stop  offset="1" style="stop-color:#FED450"/>
				</linearGradient>
				<path style="fill:url(#SVGID_00000034808404236543605000000006066195368090478499_);" d="M241.9,13.2l1.5,3.1
					c0.2,0.3,0.5,0.6,0.9,0.6l3.4,0.5c1,0.1,1.3,1.3,0.6,2l-2.5,2.4c-0.3,0.3-0.4,0.7-0.3,1l0.6,3.4c0.2,0.9-0.8,1.7-1.7,1.2
					l-3.1-1.6c-0.3-0.2-0.7-0.2-1.1,0l-3.1,1.6c-0.9,0.4-1.8-0.3-1.7-1.2l0.6-3.4c0.1-0.4-0.1-0.8-0.3-1l-2.5-2.4
					c-0.7-0.7-0.3-1.8,0.6-2l3.4-0.5c0.4-0.1,0.7-0.3,0.9-0.6l1.5-3.1C240.3,12.4,241.5,12.4,241.9,13.2z"/>
			</g>
		</g>
		<g>
			<g>
				<g>
					
						<image style="overflow:visible;opacity:0.5;" width="140" height="772" xlink:href="3EAE40E7.png"  transform="matrix(0.24 0 0 0.24 37.44 142.56)">
					</image>
					<g>
						
							<linearGradient id="SVGID_00000147934135843867626600000016108690455997843116_" gradientUnits="userSpaceOnUse" x1="2019.9242" y1="588.7349" x2="2019.8879" y2="580.8749" gradientTransform="matrix(0 -1 1 0 -531.1487 2250.5107)">
							<stop  offset="0" style="stop-color:#D6E1FE;stop-opacity:0.6"/>
							<stop  offset="1" style="stop-color:#F5F7F9"/>
						</linearGradient>
						<path style="fill:url(#SVGID_00000147934135843867626600000016108690455997843116_);" d="M54.8,154.6v152
							c0,1.6-1.3,2.9-2.9,2.9l0,0c-1.6,0-2.9-1.3-2.9-2.9v-152c0-1.6,1.3-2.9,2.9-2.9l0,0C53.5,151.7,54.8,153,54.8,154.6z"/>
					</g>
				</g>
				<g>
					
						<image style="overflow:visible;opacity:0.5;" width="102" height="735" xlink:href="3EAE40E0.png"  transform="matrix(0.24 0 0 0.24 41.9796 146.1396)">
					</image>
					<g>
						
							<linearGradient id="SVGID_00000062188366568238441470000005642202563361097105_" gradientUnits="userSpaceOnUse" x1="20.4569" y1="-568.5223" x2="63.9187" y2="535.3964">
							<stop  offset="0" style="stop-color:#FEAD6E"/>
							<stop  offset="1" style="stop-color:#FE5D85;stop-opacity:0"/>
						</linearGradient>
						<path style="fill:url(#SVGID_00000062188366568238441470000005642202563361097105_);" d="M54.8,154.6v152
							c0,1.6-1.3,2.9-2.9,2.9c-0.8,0-1.5-0.3-2.1-0.9c-0.5-0.5-0.9-1.3-0.9-2.1v-152c0-1.6,1.3-2.9,2.9-2.9c0.8,0,1.5,0.3,2.1,0.9
							C54.5,153.1,54.8,153.8,54.8,154.6z"/>
					</g>
				</g>
				
					<linearGradient id="SVGID_00000168834800956775944780000015225578713885539487_" gradientUnits="userSpaceOnUse" x1="54.2375" y1="337.3969" x2="50.9296" y2="218.309">
					<stop  offset="2.536774e-04" style="stop-color:#312880"/>
					<stop  offset="0.912" style="stop-color:#1C1339"/>
				</linearGradient>
				<path style="fill:url(#SVGID_00000168834800956775944780000015225578713885539487_);" d="M54.8,201.2v105.4
					c0,1.6-1.3,2.9-2.9,2.9c-0.8,0-1.5-0.3-2.1-0.9c-0.5-0.5-0.9-1.3-0.9-2.1V201.2c0-1.6,1.3-2.9,2.9-2.9c0.8,0,1.5,0.3,2.1,0.9
					C54.5,199.7,54.8,200.4,54.8,201.2z"/>
			</g>
			<g>
				<g>
					
						<image style="overflow:visible;opacity:0.5;" width="91" height="91" xlink:href="3EAE40E1.png"  transform="matrix(0.24 0 0 0.24 41.7191 190.5191)">
					</image>
					<g>
						<path class="st50" d="M58.2,199.8c0,3.5-2.8,6.3-6.3,6.3c-3.5,0-6.3-2.8-6.3-6.3c0-3.5,2.8-6.3,6.3-6.3
							C55.4,193.6,58.2,196.4,58.2,199.8z"/>
					</g>
				</g>
				
					<linearGradient id="SVGID_00000060749770534334471490000008480514959567724437_" gradientUnits="userSpaceOnUse" x1="53.0577" y1="202.0957" x2="50.6989" y2="197.378">
					<stop  offset="2.536774e-04" style="stop-color:#312880"/>
					<stop  offset="0.912" style="stop-color:#E62883"/>
				</linearGradient>
				<circle style="fill:url(#SVGID_00000060749770534334471490000008480514959567724437_);" cx="51.9" cy="199.8" r="3.1"/>
			</g>
		</g>
	</g>
</g>
</svg>
