<?xml version="1.0" encoding="utf-8"?>
<!-- Generator: Adobe Illustrator 28.0.0, SVG Export Plug-In . SVG Version: 6.00 Build 0)  -->
<svg version="1.1" id="Capa_1" xmlns="http://www.w3.org/2000/svg" xmlns:xlink="http://www.w3.org/1999/xlink" x="0px" y="0px"
	 viewBox="0 0 53.6 70.3" style="enable-background:new 0 0 53.6 70.3;" xml:space="preserve">
<style type="text/css">
	.st0{fill:#F2F2F2;}
</style>
<g>
	<g>
		<g>
			<g>
				<g>
					<path class="st0" d="M31,70.3H0.8c-0.5,0-0.8-0.4-0.8-0.8V22.6c0-6.1,2.3-11.8,6.6-16S16.5,0,22.6,0h1.7c6.1,0,11.8,2.3,16,6.6
						s6.6,9.9,6.6,16V36c0,0.5-0.4,0.8-0.8,0.8h-4.2v14.2c0,0.5-0.4,0.8-0.8,0.8h-9.2v17.6C31.8,69.9,31.4,70.3,31,70.3z M1.7,68.6
						h28.5V51.1c0-0.5,0.4-0.8,0.8-0.8h9.2V36c0-0.5,0.4-0.8,0.8-0.8h4.2V22.6c0-11.5-9.4-20.9-20.9-20.9h-1.7
						c-11.5,0-20.9,9.4-20.9,20.9V68.6z"/>
				</g>
				<g>
					<path class="st0" d="M31,70.3c-0.2,0-0.3-0.1-0.5-0.2L7,53.4c-0.4-0.3-0.5-0.8-0.2-1.2C7.1,51.9,7.6,51.8,8,52l23.4,16.7
						c0.4,0.3,0.5,0.8,0.2,1.2C31.5,70.2,31.2,70.3,31,70.3z"/>
				</g>
				<g>
					<g>
						<path class="st0" d="M21,45.2c-11.6,0-21-9.1-21-20.3C0,15,8.3,7,18.5,7S37,15,37,24.9c0,8.5-7.2,15.4-16,15.4
							c-8.8,0-16-6.9-16-15.4c0-7.2,6-13,13.5-13S32,17.7,32,24.9c0,5.8-4.9,10.6-10.9,10.6s-10.9-4.7-10.9-10.6
							c0-4.5,3.8-8.1,8.4-8.1s8.4,3.6,8.4,8.1c0,3.1-2.6,5.7-5.9,5.7c-3.2,0-5.9-2.6-5.9-5.7c0-1.8,1.5-3.3,3.4-3.3
							c1.9,0,3.4,1.5,3.4,3.3c0,0.5-0.4,0.8-0.8,0.8s-0.8-0.4-0.8-0.8c0-0.9-0.8-1.6-1.7-1.6c-0.9,0-1.7,0.7-1.7,1.6
							c0,2.2,1.9,4,4.2,4c2.3,0,4.2-1.8,4.2-4c0-3.6-3-6.5-6.7-6.5s-6.7,2.9-6.7,6.5c0,4.9,4.2,8.9,9.3,8.9s9.3-4,9.3-8.9
							c0-6.2-5.3-11.3-11.8-11.3S6.7,18.6,6.7,24.9c0,7.6,6.4,13.8,14.3,13.8c7.9,0,14.3-6.2,14.3-13.8c0-8.9-7.5-16.2-16.8-16.2
							S1.7,16,1.7,24.9c0,10.3,8.7,18.6,19.3,18.6c0.5,0,0.8,0.4,0.8,0.8C21.9,44.8,21.5,45.2,21,45.2z"/>
					</g>
				</g>
				<g>
					<path class="st0" d="M52.7,45.2H20.9c-0.5,0-0.8-0.4-0.8-0.8c0-0.5,0.4-0.8,0.8-0.8h31.8c0.5,0,0.8,0.4,0.8,0.8
						C53.6,44.8,53.2,45.2,52.7,45.2z"/>
				</g>
				<g>
					<path class="st0" d="M22.6,1.7H0.8C0.4,1.7,0,1.3,0,0.8S0.4,0,0.8,0h21.8c0.5,0,0.8,0.4,0.8,0.8S23.1,1.7,22.6,1.7z"/>
				</g>
			</g>
		</g>
	</g>
</g>
</svg>
