<?xml version="1.0" encoding="utf-8"?>
<!-- Generator: Adobe Illustrator 28.0.0, SVG Export Plug-In . SVG Version: 6.00 Build 0)  -->
<svg version="1.1" id="Capa_1" xmlns="http://www.w3.org/2000/svg" xmlns:xlink="http://www.w3.org/1999/xlink" x="0px" y="0px"
	 viewBox="0 0 60 80.5" style="enable-background:new 0 0 60 80.5;" xml:space="preserve">
<style type="text/css">
	.st0{fill:#F2F2F2;}
</style>
<g>
	<path class="st0" d="M14.8,56.9v2.7h-3.4c-2.5,0-4.5,2-4.5,4.5v4.4H4.5C2,68.5,0,70.6,0,73V79c0,0.8,0.7,1.5,1.5,1.5h57
		c0.8,0,1.5-0.7,1.5-1.5V73c0-2.5-2-4.5-4.5-4.5h-2.4v-4.4c0-2.5-2-4.5-4.5-4.5h-4.1l0.5-5.5c0.1-1.8,1-3.5,2.3-4.7
		c2.1-1.9,3.3-4.7,3.3-7.5v-16c0-8.5-6.3-15.6-14.8-16.6C35.4,5.7,33,2.5,29.7,1l-2-0.9c-0.5-0.2-1-0.2-1.4,0.1
		c-0.4,0.3-0.7,0.8-0.7,1.3l0.1,8.5l-4.9,5.8l-9.2,8.5c-2.7,2.7-2.7,7.2,0,9.9c2.2,2.2,5.5,2.7,8.3,1.2c2.2-1.3,4.8-1.7,7.2-1.2
		l2.8,0.6L17.7,49.2C15.9,51.4,14.8,54.1,14.8,56.9z M57,73v4.4H3V73c0-0.8,0.7-1.5,1.5-1.5h51C56.3,71.5,57,72.2,57,73z M50.1,64.1
		v4.4H9.9v-4.4c0-0.8,0.7-1.5,1.5-1.5h37.2C49.4,62.6,50.1,63.3,50.1,64.1L50.1,64.1z M20,51.2L33.9,35c0.5-0.6,0.5-1.6-0.2-2.1
		c-0.2-0.2-0.4-0.3-0.6-0.3l-5.3-1.2c-3.2-0.7-6.6-0.2-9.4,1.5c-2,1-4.4,0.2-5.4-1.8c-0.8-1.5-0.5-3.3,0.7-4.6L23,18l0.1-0.1
		l5.3-6.3c0.2-0.3,0.4-0.6,0.4-1l-0.1-6.7c2.6,1.3,4.3,3.9,4.3,6.9c0,0.8,0.6,1.5,1.4,1.5c7.4,0.3,13.2,6.3,13.2,13.7v16
		c0,2-0.9,3.9-2.3,5.3c-1.9,1.7-3,4.1-3.2,6.7l-0.5,5.7H17.8v-2.7C17.9,54.8,18.6,52.8,20,51.2z"/>
</g>
</svg>
