<?xml version="1.0" encoding="utf-8"?>
<!-- Generator: Adobe Illustrator 28.0.0, SVG Export Plug-In . SVG Version: 6.00 Build 0)  -->
<svg version="1.1" id="Capa_1" xmlns="http://www.w3.org/2000/svg" xmlns:xlink="http://www.w3.org/1999/xlink" x="0px" y="0px"
	 viewBox="0 0 80 64.1" style="enable-background:new 0 0 80 64.1;" xml:space="preserve">
<style type="text/css">
	.st0{fill:#F2F2F2;}
</style>
<path class="st0" d="M58.7,14.2v1.6c-0.1,2.7-2.3,4.8-4.9,4.7c-1.4,0-2.7-0.7-3.6-1.7c-1.7,2.1-4.8,2.3-6.9,0.6
	c-0.3-0.2-0.5-0.5-0.7-0.7c-1.2,1.6-3.3,2.2-5.1,1.6c-0.6,0.5-1.3,0.8-2,0.8L31,21.4c0.3,0.3,0.6,0.5,0.9,0.8h27.9
	c0.4,0,0.7,0.2,0.9,0.5c3.3,4.2,9.3,5,13.5,1.7c4.2-3.3,5-9.3,1.7-13.5c-3.3-4.2-9.3-5-13.5-1.7c-0.6,0.5-1.2,1.1-1.7,1.7
	c-0.2,0.3-0.5,0.5-0.9,0.5h-1V14.2z M42.6,1.9c1.7-2.1,4.7-2.5,6.8-0.8c0.3,0.2,0.5,0.4,0.7,0.7c1.7-2.1,4.8-2.3,6.9-0.6
	c0.1,0.1,0.2,0.2,0.3,0.2c0.9,0.9,1.4,2.1,1.4,3.3v4.6h0.5c4.2-5,11.6-5.7,16.6-1.5c5,4.2,5.7,11.6,1.5,16.6S65.7,30,60.7,25.8
	c-0.5-0.5-1-1-1.5-1.5h-0.5v4c0,2.6-1.3,6.7-3.3,8.6v6.3h3.4c0.6,0,1.1,0.5,1.1,1.1c0,0,0,0,0,0v18.8c0,0.6-0.5,1.1-1.1,1.1
	c0,0,0,0,0,0H26.8c-0.6,0-1.1-0.5-1.1-1.1c0,0,0,0,0,0V44.3c0-0.6,0.5-1.1,1.1-1.1c0,0,0,0,0,0h3.4v-5c-0.9-1-1.8-2-2.8-2.9
	c-1.3-1.2-2.6-2.6-3.7-4c-1-1.7-2-3.4-2-5.4v-1.6h-0.7c-3.8,5.7-10.3,6.6-16,3c-1.8-1.2-3.5-2.6-4.8-4.4c-0.4-0.5-0.3-1.2,0.2-1.6
	c0.2-0.1,0.4-0.2,0.7-0.2h9.1l2.8-4.5l-2.8-4.5H1.5c-0.4,0.2-0.8,0.1-1.1-0.1c-0.5-0.4-0.6-1.1-0.1-1.6c0.1-0.1,0.1-0.2,0.2-0.2
	c1.3-1.6,2.9-3,4.7-4.1C11,2.7,17.3,3.5,21.1,9.3h5.6V4.8c0-2.6,2.1-4.8,4.8-4.8c1.4,0,2.8,0.6,3.7,1.8c1.6-2,4.6-2.4,6.6-0.7
	C42.1,1.3,42.4,1.5,42.6,1.9L42.6,1.9z M36.3,11.8c0.5-0.1,1-0.1,1.5-0.1c1.5,0.3,2.6,1.7,2.5,3.3c-0.1,1.2-0.5,2.3-1.1,3.3
	c1.3-0.2,2.3-1.3,2.3-2.6V4.7c0-1.4-1.2-2.6-2.6-2.6c-1.4,0-2.6,1.2-2.6,2.6L36.3,11.8z M35.5,14c-3.2,0.3-6.4,0.4-9.6,0.2
	c-1.1,0-2,0.9-2.1,2c0,0,0,0,0,0.1v9.7c0,1.5,0.9,3,1.7,4.2c1.1,1.7,5.6,5.4,6.6,7.3c0.1,0.2,0.2,0.4,0.2,0.6v5.2h21v-6.8
	c0-0.3,0.2-0.6,0.4-0.8c1.7-1.2,2.8-5.2,2.8-7.3v-4H33.8c1.5,1.9,2.5,3.9,2.3,6c0,0.6-0.5,1-1.1,1c-0.6,0-1-0.5-1-1.1l0,0
	c0-1.5-0.6-2.9-1.5-4.1c-1.4-1.8-3.1-3.4-4.9-4.7c-0.5-0.3-0.6-1-0.3-1.5c0.2-0.3,0.5-0.4,0.8-0.5l7.2-0.5c0.7-0.2,1.3-0.7,1.7-1.3
	c0.6-0.9,1-1.9,1.1-2.9c0-0.3-0.3-1-0.6-1C36.9,13.9,36.2,14,35.5,14L35.5,14z M34.2,12V4.8c0-1.5-1.2-2.7-2.7-2.7
	c-1.5,0-2.7,1.2-2.7,2.7l0,0v7.4l2.6,0.1L34.2,12z M56.6,15.7v-11c0-1.5-1.2-2.6-2.7-2.6c-1.4,0-2.6,1.2-2.6,2.6v11.1
	c0,1.5,1.2,2.7,2.7,2.6C55.4,18.4,56.6,17.2,56.6,15.7C56.6,15.7,56.6,15.7,56.6,15.7L56.6,15.7z M46.5,2.1c-1.4-0.1-2.7,1-2.7,2.4
	c0,0,0,0.1,0,0.1v11.1c0,1.5,1.2,2.7,2.7,2.7c1.5,0,2.7-1.2,2.7-2.7V4.7C49.1,3.3,48,2.1,46.5,2.1L46.5,2.1z M26.7,12.1v-0.7h-6.2
	c-0.4,0-0.8-0.2-1-0.6c-0.7-1.1-1.5-2.1-2.5-2.9c-4.3-3.4-9.9-1.3-13.5,2.2h7.2c0.4,0,0.7,0.2,0.9,0.5l3.5,5.5
	c0.2,0.4,0.2,0.8,0,1.2l-3.5,5.5c-0.2,0.3-0.5,0.5-0.9,0.5H3.3c2.3,2.3,5.4,4,8.5,4c1.9,0,3.7-0.6,5.2-1.8c0.9-0.7,1.7-1.6,2.3-2.6
	c0.1-0.5,0.5-0.8,1-0.8h1.3v-5.9c0-2.3,1.8-4.2,4.1-4.2c0,0,0.1,0,0.1,0L26.7,12.1z M57.8,45.3H27.9V62h29.9V45.3z M61.5,16.3
	l3.1-5.3c0.2-0.3,0.5-0.5,0.9-0.5h6.1c0.4,0,0.8,0.2,1,0.6l3,5.2c0.2,0.3,0.2,0.7,0,1.1l-3.1,5.3c-0.2,0.3-0.5,0.5-0.9,0.5h-6.1
	c-0.4,0-0.8-0.2-1-0.6c-1-1.7-2-3.5-3-5.2C61.3,17,61.3,16.6,61.5,16.3L61.5,16.3z M64.9,14.7l-1.2,2.1c0.8,1.4,1.6,2.8,2.4,4.2H71
	l2.4-4.2L71,12.6h-4.9L64.9,14.7z"/>
</svg>
