<?xml version="1.0" encoding="utf-8"?>
<!-- Generator: Adobe Illustrator 28.0.0, SVG Export Plug-In . SVG Version: 6.00 Build 0)  -->
<svg version="1.1" id="Capa_1" xmlns="http://www.w3.org/2000/svg" xmlns:xlink="http://www.w3.org/1999/xlink" x="0px" y="0px"
	 viewBox="0 0 137.5 146.1" style="enable-background:new 0 0 137.5 146.1;" xml:space="preserve">
<style type="text/css">
	.st0{fill:#1C1339;}
</style>
<g>
	<g>
		<path class="st0" d="M137.1,27c-0.7-2.6-2.3-4.8-4.5-6.2c-1.6-1-3.4-1.5-5.3-1.5l-1.9-7.1c-0.9-3.1-4.1-4.9-7.2-4
			c-1,0.3-1.9,0.8-2.6,1.6c-0.6,0.7-1.3,1.4-2.1,2.1V8c0-4.4-3.6-8-8-8H25.4c-4.4,0-8,3.6-8,8v19.3h-10c-4.1,0-7.4,3.3-7.4,7.4v18.7
			c0,4.1,3.3,7.4,7.4,7.4h10v14.9h-10C3.3,75.7,0,79,0,83.1v18.7c0,4.1,3.3,7.4,7.4,7.4h10v29c0,4.4,3.6,8,8,8h80.1c4.4,0,8-3.6,8-8
			v-31h11.7c4.1,0,7.4-3.3,7.4-7.4V81.1c0-4.1-3.3-7.4-7.4-7.4h-11.7V51.1c4.6-0.3,9.2,0.2,13.5,1.6c1.1,0.3,2.2,0.3,3.2,0
			c3.1-0.8,4.9-4,4-7l-1.9-7.1c1.7-0.9,3-2.3,3.9-4C137.5,32.2,137.8,29.5,137.1,27z M25.4,4.1h80.1c2.2,0,3.9,1.8,3.9,3.9v6.7H82.5
			c-0.9,0-1.7,0.6-1.9,1.4l-1.4,4.2H51.7l-1.4-4.2c-0.3-0.8-1.1-1.4-1.9-1.4H21.5V8C21.5,5.8,23.3,4.1,25.4,4.1z M4.1,53.4V34.7
			c0-1.8,1.5-3.3,3.3-3.3h33.4c1.8,0,3.3,1.5,3.3,3.3v18.7c0,1.8-1.5,3.3-3.3,3.3h-1.6c-1.1,0-2,0.9-2,2V66l-15.6-9
			c-0.3-0.2-0.7-0.3-1-0.3H7.4C5.6,56.7,4.1,55.2,4.1,53.4z M4.1,101.7V83.1c0-1.8,1.5-3.3,3.3-3.3h33.3c1.8,0,3.3,1.5,3.3,3.3
			c0,0,0,0,0,0v18.7c0,1.8-1.5,3.3-3.3,3.3c0,0,0,0,0,0H7.4C5.6,105,4.1,103.6,4.1,101.7z M105.5,142.1H25.4c-2.2,0-3.9-1.8-3.9-3.9
			v-19.2h88v19.2C109.4,140.3,107.7,142.1,105.5,142.1z M128.5,81.1v18.7c0,1.8-1.5,3.3-3.3,3.3H91.8c-1.8,0-3.3-1.5-3.3-3.3V81.1
			c0-1.8,1.5-3.3,3.3-3.3h33.4C127,77.7,128.5,79.2,128.5,81.1z M109.4,73.7H91.8c-4.1,0-7.4,3.3-7.4,7.4v18.7
			c0,4.1,3.3,7.4,7.4,7.4h17.6v7.7h-88v-5.8h19.2c4.1,0,7.4-3.3,7.4-7.4V83.1c0-4.1-3.3-7.4-7.4-7.4H21.5V61.6l16.7,9.7
			c1,0.6,2.2,0.2,2.8-0.7c0.2-0.3,0.3-0.7,0.3-1v-8.8c3.9-0.3,6.9-3.5,6.9-7.4V34.7c0-4.1-3.3-7.4-7.4-7.4H21.5v-8.5H47l1.4,4.2
			c0.3,0.8,1,1.4,1.9,1.4h30.4c0.9,0,1.7-0.6,1.9-1.4l1.4-4.2h19c-4.1,2-8.5,3.6-12.8,5.3c-2.1,0.8-4.2,1.6-6.3,2.4l-4.2,1.1
			c-3.5,0.9-5.5,4.5-4.6,8l4.1,15.1c0.8,2.8,3.3,4.8,6.3,4.8c0.5,0,1-0.1,1.5-0.2l8.6,14.8c0.5,0.8,1.4,1.2,2.3,0.9l6.5-1.8
			c1.1-0.3,1.7-1.4,1.4-2.5c0-0.1-0.1-0.2-0.1-0.3l-5.8-13.8c3.2-0.5,6.4-1,9.6-1.3L109.4,73.7z M95.8,53.4L101,66l-2.8,0.7L91,54.2
			l0.3-0.1C92.8,53.9,94.3,53.7,95.8,53.4z M86,51.3c-1.3,0.3-2.6-0.4-3-1.7L79,34.4c-0.3-1.3,0.4-2.6,1.7-3l2.4-0.6l5.3,19.9
			L86,51.3z M97.3,49c-1.7,0.3-3.3,0.6-4.9,0.8l-5.4-20.3c1.5-0.6,3-1.2,4.6-1.8c7.8-2.9,15.7-5.9,22.2-10.9l8.2,30.5
			C113.9,46.3,105.4,47.7,97.3,49L97.3,49z M129.2,48.8c-0.3,0.1-0.6,0.1-0.9,0c-0.6-0.2-1.3-0.4-1.9-0.6l-9.2-34.3
			c0.5-0.5,0.9-0.9,1.4-1.4c0.2-0.2,0.5-0.4,0.8-0.4c0.9-0.2,1.8,0.3,2,1.2l2.4,8.9l0,0l4.2,15.8l0,0l2.4,8.9
			C130.7,47.6,130.1,48.5,129.2,48.8L129.2,48.8z M132.7,32.7c-0.3,0.7-0.8,1.2-1.4,1.7l-0.8-3.1l-2.1-7.9c0.7,0.1,1.4,0.4,2.1,0.8
			C133.2,26.1,134.2,29.7,132.7,32.7L132.7,32.7z M56.8,12.2c0-1.1,0.9-2,2-2h13.3c1.1,0,2,0.9,2,2s-0.9,2-2,2H58.8
			C57.7,14.2,56.8,13.3,56.8,12.2z M74,123.6H57c-3.4,0-6.2,2.8-6.2,6.2v1.5c0,3.4,2.8,6.2,6.2,6.2h17c3.4,0,6.2-2.8,6.2-6.2v-1.5
			C80.2,126.3,77.4,123.6,74,123.6z M76.1,131.2c0,1.2-1,2.1-2.2,2.2H57c-1.2,0-2.2-1-2.2-2.2v-1.5c0-1.2,1-2.2,2.2-2.2h17
			c1.2,0,2.1,1,2.2,2.2V131.2z M9.2,38.6c0-1.1,0.9-2,2-2H37c1.1,0,2,0.9,2,2s-0.9,2-2,2H11.2C10.1,40.6,9.2,39.7,9.2,38.6z
			 M37,51.8H11.2c-1.1,0-2-0.9-2-2c0-1.1,0.9-2,2-2H37c1.1,0,2,0.9,2,2C39,50.9,38.1,51.8,37,51.8L37,51.8z M31.5,90.6l-12.9-7.4
			c-1-0.6-2.2-0.2-2.8,0.7c-0.2,0.3-0.3,0.7-0.3,1v14.8c0,1.1,0.9,2,2,2c0.4,0,0.7-0.1,1-0.3l12.9-7.4c1-0.6,1.3-1.8,0.7-2.8
			C32.1,91.1,31.8,90.8,31.5,90.6L31.5,90.6z M19.7,96.3v-7.8l6.8,3.9L19.7,96.3z M108.4,101.1h0.1h0.1h0.1
			c2.7-0.2,8.9-6.1,10.9-11.3c1.4-2.8,0.8-6.2-1.3-8.5c-2.4-2.4-6.1-2.2-9.7,0.4c-3.6-2.6-7.3-2.7-9.7-0.4c-2.2,2.3-2.7,5.7-1.3,8.5
			C99.4,95,105.6,101,108.4,101.1z M101.7,84.2c0.3-0.3,0.8-0.5,1.3-0.5c1.6,0.2,3.1,1,4.3,2.1c0.8,0.7,1.9,0.7,2.7,0
			c1.3-1.1,4.2-3,5.5-1.6c0.8,0.9,1.1,2.1,0.7,3.3c-1,4.2-5.9,8.7-7.5,9.5c-1.6-0.8-6.5-5.3-7.5-9.5
			C100.5,86.4,100.8,85.1,101.7,84.2z"/>
	</g>
</g>
</svg>
