<?xml version="1.0" encoding="utf-8"?>
<!-- Generator: Adobe Illustrator 28.0.0, SVG Export Plug-In . SVG Version: 6.00 Build 0)  -->
<svg version="1.1" id="Capa_1" xmlns="http://www.w3.org/2000/svg" xmlns:xlink="http://www.w3.org/1999/xlink" x="0px" y="0px"
	 viewBox="0 0 126.1 127.9" style="enable-background:new 0 0 126.1 127.9;" xml:space="preserve">
<style type="text/css">
	.st0{fill:#1C1339;}
</style>
<g>
	<g>
		<g>
			<path class="st0" d="M123.9,109.8h-4.3v-74c0-4.7-3.9-8.7-8.7-8.7H106c0-1.4,0.2-2.6-0.6-3.3L82,0.6c-0.2-0.2-0.4-0.4-0.8-0.4
				c-0.2,0-0.6-0.2-0.6-0.2H21.8c-1.2,0-2,0.8-2,2v25.2H15c-4.7,0-8.7,3.9-8.7,8.7v74H2c-1.2,0-2,0.8-2,2c0,8.9,7.3,16.1,16.1,16.1
				H110c8.9,0,16.1-7.3,16.1-16.1C125.9,110.8,125.1,109.8,123.9,109.8z M111,31.1c2.6,0,4.7,2.2,4.7,4.7v74H106V31.1L111,31.1z
				 M99.4,23.4H82.6V6.7L99.4,23.4z M78.7,3.9v21.4c0,1.2,0.8,2,2,2h21.4v82.4H23.8V3.9H78.7z M10.2,35.8c0-2.6,2.2-4.7,4.7-4.7h4.9
				v78.7h-9.6V35.8z M109.8,123.9H16.1c-6.1,0-11-4.3-12-10.2c-7.7,0,110,0,117.8,0C120.8,119.6,115.9,123.9,109.8,123.9z"/>
		</g>
	</g>
	<g>
		<g>
			<path class="st0" d="M63,115.5c-2,0-3.3,1.6-3.3,3.3c0,2,1.6,3.3,3.3,3.3C67.5,122.2,67.5,115.5,63,115.5z"/>
		</g>
	</g>
	<g>
		<g>
			<path class="st0" d="M32.1,20.5h37.6c1.2,0,2-0.8,2-2c0-1.2-0.8-2-2-2H32.1c-1.2,0-2,0.8-2,2C30.1,19.5,31.1,20.5,32.1,20.5z"/>
		</g>
	</g>
	<g>
		<g>
			<path class="st0" d="M32.1,42.5h61.8c1.2,0,2-0.8,2-2s-0.8-2-2-2H32.1c-1.2,0-2,0.8-2,2S31.1,42.5,32.1,42.5z"/>
		</g>
	</g>
	<g>
		<g>
			<path class="st0" d="M32.1,64.7h61.8c1.2,0,2-0.8,2-2c0-1.2-0.8-2-2-2H32.1c-1.2,0-2,0.8-2,2C30.1,63.9,31.1,64.7,32.1,64.7z"/>
		</g>
	</g>
	<g>
		<path class="st0" d="M42.7,95.8c-0.2,0-0.5-0.1-0.7-0.2l-4.1-2.2l-4.1,2.2c-0.5,0.3-1.1,0.2-1.6-0.1c-0.5-0.3-0.7-0.9-0.6-1.5
			l0.8-4.6l-3.3-3.2c-0.4-0.4-0.6-1-0.4-1.5c0.2-0.5,0.6-0.9,1.2-1l4.6-0.7l2-4.2c0.3-0.5,0.8-0.8,1.3-0.8s1.1,0.3,1.3,0.8l2,4.2
			l4.6,0.7c0.6,0.1,1,0.5,1.2,1c0.2,0.5,0,1.1-0.4,1.5l-3.3,3.2l0.8,4.6c0.1,0.6-0.1,1.1-0.6,1.5C43.3,95.7,43,95.8,42.7,95.8z
			 M37.9,90.3c0.2,0,0.5,0.1,0.7,0.2l2.1,1.1l-0.4-2.3c-0.1-0.5,0.1-1,0.4-1.3l1.7-1.7L40,85.9c-0.5-0.1-0.9-0.4-1.1-0.8L37.9,83
			l-1.1,2.1c-0.2,0.4-0.6,0.7-1.1,0.8l-2.4,0.3l1.7,1.7c0.4,0.3,0.5,0.8,0.4,1.3l-0.4,2.3l2.1-1.1C37.4,90.4,37.6,90.3,37.9,90.3z"
			/>
	</g>
	<g>
		<path class="st0" d="M58.2,95.8c-0.3,0-0.6-0.1-0.9-0.3c-0.5-0.3-0.7-0.9-0.6-1.5l0.8-4.6l-3.3-3.2c-0.4-0.4-0.6-1-0.4-1.5
			c0.2-0.5,0.6-0.9,1.2-1l4.6-0.7l2-4.2c0.3-0.5,0.8-0.8,1.3-0.8l0,0c0.6,0,1.1,0.3,1.3,0.8l2,4.2l4.6,0.7c0.6,0.1,1,0.5,1.2,1
			c0.2,0.5,0,1.1-0.4,1.5l-3.3,3.2l0.8,4.6c0.1,0.6-0.1,1.1-0.6,1.5c-0.5,0.3-1.1,0.4-1.6,0.1L63,93.5l-4.1,2.2
			C58.6,95.8,58.4,95.8,58.2,95.8z M58.4,86.3l1.7,1.7c0.4,0.3,0.5,0.8,0.4,1.3l-0.4,2.3l2.1-1.1c0.4-0.2,1-0.2,1.4,0l2.1,1.1
			l-0.4-2.3c-0.1-0.5,0.1-1,0.4-1.3l1.7-1.7l-2.4-0.3c-0.5-0.1-0.9-0.4-1.1-0.8L63,83l-1.1,2.1c-0.2,0.4-0.6,0.7-1.1,0.8L58.4,86.3z
			"/>
	</g>
	<g>
		<path class="st0" d="M92.9,95.8c-0.2,0-0.5-0.1-0.7-0.2l-4.1-2.2L84,95.7c-0.5,0.3-1.1,0.2-1.6-0.1c-0.5-0.3-0.7-0.9-0.6-1.5
			l0.8-4.6l-3.3-3.2c-0.4-0.4-0.6-1-0.4-1.5c0.2-0.5,0.6-0.9,1.2-1l4.6-0.7l2-4.2c0.3-0.5,0.8-0.8,1.3-0.8s1.1,0.3,1.3,0.8l2,4.2
			l4.6,0.7c0.6,0.1,1,0.5,1.2,1c0.2,0.5,0,1.1-0.4,1.5l-3.3,3.2l0.8,4.6c0.1,0.6-0.1,1.1-0.6,1.5C93.5,95.7,93.2,95.8,92.9,95.8z
			 M88.1,90.3c0.2,0,0.5,0.1,0.7,0.2l2.1,1.1l-0.4-2.3c-0.1-0.5,0.1-1,0.4-1.3l1.7-1.7l-2.4-0.3c-0.5-0.1-0.9-0.4-1.1-0.8L88.1,83
			L87,85.1c-0.2,0.4-0.6,0.7-1.1,0.8l-2.4,0.3l1.7,1.7c0.4,0.3,0.5,0.8,0.4,1.3l-0.4,2.3l2.1-1.1C87.6,90.4,87.8,90.3,88.1,90.3z"/>
	</g>
</g>
</svg>
