<?xml version="1.0" encoding="utf-8"?>
<!-- Generator: Adobe Illustrator 28.0.0, SVG Export Plug-In . SVG Version: 6.00 Build 0)  -->
<svg version="1.1" id="Capa_1" xmlns="http://www.w3.org/2000/svg" xmlns:xlink="http://www.w3.org/1999/xlink" x="0px" y="0px"
	 viewBox="0 0 126.1 146.3" style="enable-background:new 0 0 126.1 146.3;" xml:space="preserve">
<style type="text/css">
	.st0{fill:#1C1339;}
</style>
<g>
	<g>
		<path class="st0" d="M85.7,146.3H5c-2.8,0-5-2.3-5-5v-116c0-2.8,2.3-5,5-5h58c0.7,0,1.3,0.3,1.8,0.7l25.2,25.2
			c0.5,0.5,0.7,1.1,0.7,1.8v93.3C90.8,144,88.5,146.3,85.7,146.3z M5,25.2v116h80.7V48.9L62,25.2H5z"/>
	</g>
	<g>
		<path class="st0" d="M88.3,50.4H65.6c-2.8,0-5-2.3-5-5V22.7c0-1,0.6-1.9,1.6-2.3c0.9-0.4,2-0.2,2.7,0.5l25.2,25.2
			c0.7,0.7,0.9,1.8,0.5,2.7C90.2,49.8,89.3,50.4,88.3,50.4z M65.6,28.8v16.6h16.6L65.6,28.8z"/>
	</g>
	<g>
		<path class="st0" d="M46.7,42.9h-29c-1.4,0-2.5-1.1-2.5-2.5c0-1.4,1.1-2.5,2.5-2.5h29c1.4,0,2.5,1.1,2.5,2.5
			C49.2,41.7,48,42.9,46.7,42.9z"/>
	</g>
	<g>
		<path class="st0" d="M70.6,65.6h-53c-1.4,0-2.5-1.1-2.5-2.5s1.1-2.5,2.5-2.5h53c1.4,0,2.5,1.1,2.5,2.5S72,65.6,70.6,65.6z"/>
	</g>
	<g>
		<path class="st0" d="M70.6,83.2h-53c-1.4,0-2.5-1.1-2.5-2.5s1.1-2.5,2.5-2.5h53c1.4,0,2.5,1.1,2.5,2.5S72,83.2,70.6,83.2z"/>
	</g>
	<g>
		<path class="st0" d="M70.6,100.9h-53c-1.4,0-2.5-1.1-2.5-2.5s1.1-2.5,2.5-2.5h53c1.4,0,2.5,1.1,2.5,2.5S72,100.9,70.6,100.9z"/>
	</g>
	<g>
		<path class="st0" d="M55.9,128.6c-0.8,0-1.5-0.4-2-1l-5.5-6.9c-0.9-1.1-0.8-2.7,0.3-3.6c1.1-0.9,2.7-0.8,3.6,0.3
			c0,0,0.1,0.1,0.1,0.1l3.9,5l17.3-13.6c1.1-0.9,2.7-0.7,3.6,0.4c0.9,1.1,0.7,2.7-0.4,3.6l0,0l-19.3,15.1
			C57,128.5,56.5,128.7,55.9,128.6z"/>
	</g>
	<g>
		<path class="st0" d="M121,126.1H88.3c-1.4,0-2.5-1.1-2.5-2.5V48.9L62,25.2H37.8c-1.4,0-2.5-1.1-2.5-2.5V5c0-2.8,2.3-5,5-5h58
			c0.7,0,1.3,0.3,1.8,0.7l25.2,25.2c0.5,0.5,0.7,1.1,0.7,1.8V121C126.1,123.8,123.8,126.1,121,126.1z M90.8,121H121V28.8L97.3,5h-57
			v15.1H63c0.7,0,1.3,0.3,1.8,0.7l25.2,25.2c0.5,0.5,0.7,1.1,0.7,1.8V121z"/>
	</g>
	<g>
		<path class="st0" d="M123.6,30.3h-22.7c-2.8,0-5-2.3-5-5V2.5c0-1,0.6-1.9,1.6-2.3c0.9-0.4,2-0.2,2.7,0.5l25.2,25.2
			c0.7,0.7,0.9,1.8,0.5,2.7C125.5,29.6,124.6,30.3,123.6,30.3z M100.9,8.6v16.6h16.6L100.9,8.6z"/>
	</g>
	<g>
		<path class="st0" d="M82,20.2H70.6c-1.4,0-2.5-1.1-2.5-2.5c0-1.4,1.1-2.5,2.5-2.5H82c1.4,0,2.5,1.1,2.5,2.5
			C84.5,19,83.3,20.2,82,20.2z"/>
	</g>
	<g>
		<path class="st0" d="M108.4,45.4H95.8c-1.4,0-2.5-1.1-2.5-2.5c0-1.4,1.1-2.5,2.5-2.5h12.6c1.4,0,2.5,1.1,2.5,2.5
			C111,44.3,109.8,45.4,108.4,45.4z"/>
	</g>
	<g>
		<path class="st0" d="M108.4,63H95.8c-1.4,0-2.5-1.1-2.5-2.5c0-1.4,1.1-2.5,2.5-2.5h12.6c1.4,0,2.5,1.1,2.5,2.5
			C111,61.9,109.8,63,108.4,63z"/>
	</g>
	<g>
		<path class="st0" d="M108.4,80.7H95.8c-1.4,0-2.5-1.1-2.5-2.5c0-1.4,1.1-2.5,2.5-2.5h12.6c1.4,0,2.5,1.1,2.5,2.5
			C111,79.6,109.8,80.7,108.4,80.7z"/>
	</g>
</g>
</svg>
