<?xml version="1.0" encoding="utf-8"?>
<!-- Generator: Adobe Illustrator 28.0.0, SVG Export Plug-In . SVG Version: 6.00 Build 0)  -->
<svg version="1.1" id="Capa_1" xmlns="http://www.w3.org/2000/svg" xmlns:xlink="http://www.w3.org/1999/xlink" x="0px" y="0px"
	 viewBox="0 0 166.2 141" style="enable-background:new 0 0 166.2 141;" xml:space="preserve">
<style type="text/css">
	.st0{fill:#1C1339;}
</style>
<g>
	<path class="st0" d="M110.9,74.6l-0.7-0.7l0.4-1c1.5-3.1,0.8-6.8-1.6-9l0,0l0,0c-1.5-1.5-3.4-2.3-5.7-2.3c-2.2,0-4.2,0.8-5.7,2.3
		c-1.6,1.6-2.4,3.6-2.4,5.7s0.9,4.1,2.4,5.7c1.5,1.5,3.4,2.3,5.7,2.3c1.1,0,2.1-0.3,3.3-0.9l1-0.5l0.8,0.8l2.6,2.6
		c0.5,0.3,1.2,0.6,1.4,0.6c0.9,0,1.2-0.3,1.3-0.4c0.7-0.7,0.7-1.6,0-2.3L110.9,74.6z M106.7,72.7c-0.9,0.9-2.1,1.4-3.4,1.4
		s-2.5-0.5-3.4-1.4c-1.9-1.9-1.9-4.9,0-6.8c0.9-0.9,2.2-1.5,3.4-1.5s2.4,0.5,3.4,1.5C108.6,67.8,108.6,70.9,106.7,72.7z"/>
	<path class="st0" d="M137.5,125.9l1.4,1.4l11.6,11.6c0.1,0.1,0.4,0.4,1.3,0.4c0.4,0,0.8-0.2,1.4-0.5l12.5-12.5
		c0.7-0.7,0.7-1.6,0-2.3l-12-11.8l-1.5-1.4l1.8-1l8.2-4.4c0.5-0.3,1.1-1,1-1.6c-0.1-0.7-0.6-1.3-1.3-1.6l-24.2-6.5l-1.6-0.4l0.6-1.5
		c2.6-7,3.9-14.8,3.9-23.3C140.6,31.6,109,0,70.2,0C31.5,0.2,0,31.9,0,70.6C0,109.5,31.6,141,70.4,141c19.4,0,38.2-8.2,51.6-22.5
		l1.8-2l0.7,2.6l4.4,16.5l0,0.1l0,0.1c0.1,0.5,0.7,1,1.5,1.1c0.1,0,0.2,0,0.2,0c0.6,0,1.1-0.3,1.3-0.9l4.4-8.3L137.5,125.9z
		 M125.1,32.2l0.6,0.9c7.6,11.2,11.6,24.2,11.6,37.5c0,7.4-1.3,14.8-3.9,22.6l-0.4,1.3l-1.4-0.4l-12-3.2c-0.1,0-0.3,0-0.4,0
		c-0.5,0-1,0.2-1.3,0.5c-0.3,0.3-0.6,0.7-0.4,1.6l3.4,12.6l0.6,2.4l-2.4-0.5c-4.9-1-10.1-2.1-15.5-2.7l-1.7-0.2l0.4-1.7
		c1-4.1,1.9-8.4,2.5-12.9l0.2-1.3h1.3h3.2c9.9,0,17.9-8,17.9-17.9v-0.4c0-9.9-8-17.9-17.9-17.9h-3.2H105l-0.2-1.3
		c-0.6-4.7-1.5-9-2.5-12.9l-0.4-1.6l1.7-0.2c8-1.2,14.7-2.5,20.5-4L125.1,32.2z M101.6,90.5c-0.7,4.4-1.5,8.7-2.6,12.6l-0.3,1.2
		l-1.3-0.1c-6.9-0.8-14.7-1.2-23.7-1.5l-1.5,0v-1.5v-11v-1.5h1.5h26.4h1.7L101.6,90.5z M89.2,6.3c12.5,3.6,23.7,10.9,32.4,21.1
		l1.6,1.9l-2.4,0.5c-7.2,1.6-13,2.7-18.5,3.4l-1.2,0.2l-0.4-1.2c-3.4-10-7.8-17.9-13-23.5l-3.7-4L89.2,6.3z M72.1,33.7V5.5V3.6
		L73.9,4c9.2,2,17.6,12.2,23,28l0.6,1.8l-1.8,0.2c-7.2,0.8-14.6,1.3-22.1,1.3h-1.5V33.7z M72.1,51V40v-1.5l1.5,0
		c9-0.2,16.8-0.7,23.7-1.5l1.3-0.1l0.3,1.2c1.1,4.3,2,8.3,2.6,12.6l0.2,1.7h-1.7H73.6h-1.5V51z M66.9,4l1.8-0.4v1.8v28.3v1.5h-1.5
		c-7.5,0-14.9-0.4-22.1-1.3l-1.8-0.2l0.6-1.8C49.3,16.1,57.7,5.9,66.9,4z M68.8,38.5V40v11v1.5h-1.5H40.7h-1.7l0.3-1.7
		c0.7-4.4,1.5-8.7,2.6-12.6l0.3-1.2l1.3,0.1c9.3,1,16.9,1.5,23.9,1.5H68.8z M19.1,27.5C27.8,17.2,38.9,9.9,51.4,6.3l5.4-1.5l-3.9,4
		c-5.2,5.4-9.5,13.3-12.9,23.5l-0.4,1.2l-1.2-0.2c-7-0.9-13.1-2.1-18.5-3.4l-2.3-0.6L19.1,27.5z M15.6,109l-0.6-0.9
		c-7.6-11-11.7-24-11.7-37.6s4-26.6,11.7-37.6l0.6-0.9l1,0.3c5.8,1.5,12.5,2.8,20.5,4l1.6,0.2l-0.4,1.6c-1,4.1-1.9,8.4-2.5,12.9
		l-0.2,1.3h-1.3h-3.2c-9.9,0-17.9,8-17.9,17.9v0.4c0,9.9,8,17.9,17.9,17.9h3.2h1.3l0.2,1.3c0.6,4.7,1.5,9,2.5,12.9l0.4,1.6l-1.7,0.2
		c-8.1,1.2-14.8,2.5-20.5,4L15.6,109z M51.4,134.9c-12.5-3.6-23.7-10.9-32.4-21.1l-1.5-1.8l2.3-0.6c5.1-1.3,11-2.4,18.5-3.4l1.2-0.2
		L40,109c3.4,10,7.8,17.9,13,23.5l3.7,4L51.4,134.9z M68.8,107.5v28.3v1.9l-1.8-0.4c-9.2-2-17.6-12.2-23-28l-0.6-1.8l1.9-0.2
		c7.1-0.6,14.5-1.1,22-1.3l1.5,0V107.5z M69,90.2v11v1.5h-1.5h-0.2c-7,0-14.8,0.5-23.7,1.5l-1.3,0.1l-0.3-1.3
		c-1.1-4.3-2-8.3-2.6-12.6l-0.2-1.7h1.7h26.6H69V90.2z M31,85.4c-8,0-14.6-6.5-14.6-14.6v-0.4c0-8,6.5-14.6,14.6-14.6h78.7
		c8,0,14.6,6.5,14.6,14.6v0.4c0,8-6.5,14.6-14.6,14.6H31z M72.1,137.7v-1.9v-28.3V106h1.5c7.5,0,14.9,0.4,22.1,1.3l1.8,0.2l-0.6,1.8
		c-5.4,15.8-13.8,26-23,28L72.1,137.7z M121.5,113.8c-8.7,10.2-19.9,17.5-32.4,21.1l-5.4,1.5l3.9-4c5.2-5.4,9.5-13.3,12.9-23.5
		l0.4-1.2l1.2,0.2c7.5,1,13.4,2.1,18.5,3.4l2.3,0.6L121.5,113.8z M135.5,122.3L135.5,122.3L135.5,122.3l-2.8,4.9l-1.8,3.2l-0.9-3.6
		l-7.8-29.3l-0.7-2.5l2.5,0.7l29.3,7.8l3.7,1l-3.4,1.8l-4.9,2.5c-0.5,0.2-0.8,0.7-0.9,1.3c-0.1,0.4,0,0.7,0.5,1.5l12.2,12.4l1,1.1
		l-1.1,1.1l-8,8l-1.1,1.1l-1.1-1.1l-12.2-12.2c-0.1-0.1-0.4-0.4-1.3-0.4h-0.3C136.1,121.6,135.7,121.9,135.5,122.3z"/>
</g>
</svg>
