<?xml version="1.0" encoding="utf-8"?>
<!-- Generator: Adobe Illustrator 28.0.0, SVG Export Plug-In . SVG Version: 6.00 Build 0)  -->
<svg version="1.1" id="Capa_1" xmlns="http://www.w3.org/2000/svg" xmlns:xlink="http://www.w3.org/1999/xlink" x="0px" y="0px"
	 viewBox="0 0 146.7 146.7" style="enable-background:new 0 0 146.7 146.7;" xml:space="preserve">
<style type="text/css">
	.st0{fill:#1C1339;}
</style>
<g>
	<path class="st0" d="M146.7,144.5c0,1.2-1,2.2-2.2,2.2H2.2c-1.2,0-2.2-1-2.2-2.2V2.2C0,1,1,0,2.2,0s2.2,1,2.2,2.2v140.1h140.1
		C145.7,142.3,146.7,143.3,146.7,144.5z M42.5,99.7c1.2,0,2.2,1,2.2,2.2v30.3c0,1.2-1,2.2-2.2,2.2H18.9c-1.2,0-2.2-1-2.2-2.2v-30.3
		c0-1.2,1-2.2,2.2-2.2L42.5,99.7L42.5,99.7z M40.3,104.1H21.1V130h19.2C40.3,130,40.3,104.1,40.3,104.1z M85.2,78.7
		c1.2,0,2.2,1,2.2,2.2v51.3c0,1.2-1,2.2-2.2,2.2H61.6c-1.2,0-2.2-1-2.2-2.2V81c0-1.2,1-2.2,2.2-2.2H85.2z M83,83.2H63.8V130H83
		L83,83.2L83,83.2z M130.1,53v79.2c0,1.2-1,2.2-2.2,2.2h-23.6c-1.2,0-2.2-1-2.2-2.2V53c0-1.2,1-2.2,2.2-2.2h23.6
		C129.1,50.8,130.1,51.8,130.1,53z M125.6,55.2h-19.2V130h19.2V55.2z M101.4,16.7h26.5c1.2,0,2.2-1,2.2-2.2s-1-2.2-2.2-2.2h-26.5
		c-1.2,0-2.2,1-2.2,2.2S100.2,16.7,101.4,16.7z M90.1,16.7h3.1c1.2,0,2.2-1,2.2-2.2s-1-2.2-2.2-2.2h-3.1c-1.2,0-2.2,1-2.2,2.2
		C87.8,15.7,88.8,16.7,90.1,16.7z M101.4,26.5h26.5c1.2,0,2.2-1,2.2-2.2s-1-2.2-2.2-2.2h-26.5c-1.2,0-2.2,1-2.2,2.2
		S100.2,26.5,101.4,26.5z M90.1,26.5h3.1c1.2,0,2.2-1,2.2-2.2s-1-2.2-2.2-2.2h-3.1c-1.2,0-2.2,1-2.2,2.2
		C87.8,25.5,88.8,26.5,90.1,26.5z M101.4,36.3h26.5c1.2,0,2.2-1,2.2-2.2c0-1.2-1-2.2-2.2-2.2h-26.5c-1.2,0-2.2,1-2.2,2.2
		C99.2,35.3,100.2,36.3,101.4,36.3z M90.1,36.3h3.1c1.2,0,2.2-1,2.2-2.2c0-1.2-1-2.2-2.2-2.2h-3.1c-1.2,0-2.2,1-2.2,2.2
		C87.8,35.3,88.8,36.3,90.1,36.3z M40.9,5.7c1.2,0,2.2-1,2.2-2.2V2.2c0-1.2-1-2.2-2.2-2.2s-2.2,1-2.2,2.2v1.3
		C38.6,4.7,39.6,5.7,40.9,5.7z M24.7,11.1c0.4,0.4,1,0.6,1.6,0.6s1.1-0.2,1.6-0.6c0.9-0.9,0.9-2.3,0-3.1l-0.9-0.9
		c-0.9-0.9-2.3-0.9-3.1,0s-0.9,2.3,0,3.1L24.7,11.1z M18.9,26.4h1.3c1.2,0,2.2-1,2.2-2.2s-1-2.2-2.2-2.2h-1.3c-1.2,0-2.2,1-2.2,2.2
		S17.7,26.4,18.9,26.4z M61.5,26.4h1.3c1.2,0,2.2-1,2.2-2.2s-1-2.2-2.2-2.2h-1.3c-1.2,0-2.2,1-2.2,2.2S60.3,26.4,61.5,26.4z
		 M55.5,11.8c0.6,0,1.1-0.2,1.6-0.6l0.9-0.9c0.9-0.9,0.9-2.3,0-3.1c-0.9-0.9-2.3-0.9-3.1,0L53.9,8c-0.9,0.9-0.9,2.3,0,3.1
		C54.3,11.6,54.9,11.8,55.5,11.8z M24.5,24.3c0-9,7.3-16.4,16.4-16.4s16.4,7.3,16.4,16.4c0,4.9-1.9,7.6-3.5,10
		c-1.4,2-2.5,3.6-2.5,6.4c-0.1,3.4-0.3,12.3-10.3,12.4c0,0,0,0,0,0c0,0,0,0,0,0c-10-0.1-10.2-9-10.3-12.4c-0.1-2.8-1.2-4.4-2.5-6.4
		C26.4,31.9,24.5,29.2,24.5,24.3z M46.5,43.5h-5.7c0,0,0,0,0,0s0,0,0,0h-5.7c0.6,3.8,2.2,5.2,5.7,5.2C44.3,48.7,46,47.3,46.5,43.5z
		 M28.9,24.3c0,3.5,1.3,5.4,2.7,7.5c1.3,1.9,2.7,4,3.2,7.2h3.8v-5.1c0-1.2,1-2.2,2.2-2.2s2.2,1,2.2,2.2V39h3.8
		c0.4-3.2,1.9-5.3,3.2-7.2c1.5-2.2,2.7-4,2.7-7.5c0-6.6-5.4-11.9-11.9-11.9S28.9,17.8,28.9,24.3z M33.4,25.6c0.1,0,0.3,0,0.4,0
		c1,0,2-0.7,2.2-1.8c0.5-2.2,2.2-4,4.4-4.6c1.2-0.3,1.9-1.5,1.6-2.7s-1.5-1.9-2.7-1.6c-3.8,1-6.8,4.1-7.6,8
		C31.4,24.1,32.2,25.3,33.4,25.6z M18.9,86.3c0.4,0,0.7-0.1,1.1-0.3l56.9-31.4c-0.5,1-0.2,2.2,0.8,2.8c1,0.7,2.4,0.4,3.1-0.6
		l4.9-7.3c0.5-0.7,0.5-1.6,0.1-2.3s-1.2-1.2-2-1.1l-8.8,0.2c-1.2,0-2.2,1-2.2,2.3c0,1.1,0.9,2,2,2.1L17.8,82.1
		c-1.1,0.6-1.5,1.9-0.9,3C17.3,85.9,18.1,86.3,18.9,86.3z"/>
</g>
</svg>
