<?xml version="1.0" encoding="utf-8"?>
<!-- Generator: Adobe Illustrator 28.0.0, SVG Export Plug-In . SVG Version: 6.00 Build 0)  -->
<svg version="1.1" id="Capa_1" xmlns="http://www.w3.org/2000/svg" xmlns:xlink="http://www.w3.org/1999/xlink" x="0px" y="0px"
	 viewBox="0 0 136.3 108.8" style="enable-background:new 0 0 136.3 108.8;" xml:space="preserve">
<style type="text/css">
	.st0{fill:#1C1339;}
</style>
<g>
	<g>
		<rect x="105.8" y="92.8" class="st0" width="4.3" height="4.3"/>
	</g>
	<g>
		<path class="st0" d="M131.2,33.4H116V5.9c0-3.3-2.7-5.9-6-5.9H6C2.7,0,0,2.7,0,5.9v73.8c0,3.3,2.7,5.9,5.9,5.9l39-0.1v11.6h-5.8
			v4.3H58v4c0,1.9,1.5,3.4,3.4,3.4h23.7c1.9,0,3.4-1.5,3.4-3.4v-1.1h42.8c2.8,0,5.1-2.3,5.1-5.1V38.4
			C136.3,35.6,134,33.4,131.2,33.4z M5.9,83.5v-2.2c-0.9,0-1.6-0.7-1.6-1.6V5.9c0-0.9,0.7-1.6,1.6-1.6h104.1c0.9,0,1.6,0.7,1.6,1.6
			v27.4H84.8c-2.8,0-5.1,2.3-5.1,5.1v18.1l-18.5-0.1c-0.9,0-1.8,0.4-2.5,1c-0.7,0.7-1,1.5-1,2.5L58,81.2L6,81.3L5.9,83.5z
			 M49.3,97.1V85.6l8.7,0v11.6L49.3,97.1L49.3,97.1z M84.1,104.5H62.3V85.6h0l0-1.2V60.9h17.4h2.1l2.2,0V104.5L84.1,104.5z
			 M131.9,99.3c0,0.4-0.3,0.7-0.7,0.7H88.4V59.9c0-1.9-1.5-3.4-3.4-3.4h-1V38.4c0-0.4,0.3-0.7,0.7-0.7H116h15.2
			c0.4,0,0.7,0.3,0.7,0.7V99.3z"/>
	</g>
	<g>
		<rect x="71" y="97.1" class="st0" width="4.3" height="4.3"/>
	</g>
</g>
</svg>
