<?xml version="1.0" encoding="utf-8"?>
<!-- Generator: Adobe Illustrator 28.0.0, SVG Export Plug-In . SVG Version: 6.00 Build 0)  -->
<svg version="1.1" id="Capa_1" xmlns="http://www.w3.org/2000/svg" xmlns:xlink="http://www.w3.org/1999/xlink" x="0px" y="0px"
	 viewBox="0 0 153.3 153.3" style="enable-background:new 0 0 153.3 153.3;" xml:space="preserve">
<style type="text/css">
	.st0{fill:#1C1339;}
</style>
<g>
	<g>
		<path class="st0" d="M98,15h27c3.7,0,7,1.5,9.4,3.9c2.4,2.4,3.9,5.7,3.9,9.4v27c0,3.7-1.5,7-3.9,9.4c-2.4,2.4-5.7,3.9-9.4,3.9H98
			c-3.6,0-7-1.5-9.4-3.9l0,0c-2.4-2.4-3.9-5.7-3.9-9.4v-27c0-3.7,1.5-7,3.9-9.4C91,16.5,94.3,15,98,15z M105,113.7l-12.1,7.7
			c-1.2,0.8-2.8,0.4-3.6-0.8c-0.3-0.4-0.4-0.9-0.4-1.4l0-15.4c0-1.4,1.2-2.6,2.6-2.6c0.6,0,1.1,0.2,1.5,0.5l12,7.6
			c1.2,0.8,1.6,2.4,0.8,3.6C105.6,113.2,105.3,113.5,105,113.7z M94.1,114.4l4.7-3l-4.7-3V114.4z M82.6,92.1h29.8
			c3.3,0,6.2,1.3,8.4,3.5l0,0c2.1,2.2,3.5,5.1,3.5,8.4v14.9c0,3.3-1.3,6.2-3.5,8.4l0,0c-2.2,2.1-5.1,3.5-8.4,3.5H82.6
			c-3.3,0-6.2-1.3-8.4-3.5l0,0c-2.1-2.2-3.5-5.1-3.5-8.4V104c0-3.3,1.3-6.2,3.5-8.4l0,0C76.4,93.4,79.4,92.1,82.6,92.1z M112.4,97.3
			H82.6c-1.8,0-3.5,0.7-4.7,2c-1.2,1.2-2,2.9-2,4.7v14.9c0,1.8,0.7,3.5,2,4.7c1.2,1.2,2.9,2,4.7,2h29.8c1.8,0,3.5-0.7,4.7-2
			c1.2-1.2,2-2.9,2-4.7V104c0-1.8-0.7-3.5-2-4.7C115.9,98.1,114.3,97.3,112.4,97.3z M138.3,83.1c0.2,0.5,0.3,0.9,0.4,1.4l0,0.1
			c0.4,1.6,0.6,3.3,0.6,4.9v43.8c0,5.5-2.2,10.5-5.9,14.1c-3.6,3.6-8.6,5.9-14.1,5.9H75.6c-5.5,0-10.5-2.2-14.1-5.9
			c-3.6-3.6-5.9-8.6-5.9-14.1V97.6H19.9c-5.5,0-10.5-2.2-14.1-5.9l-0.1-0.2C2.2,88,0,83.1,0,77.7V33.9c0-5.5,2.2-10.5,5.9-14.1
			s8.6-5.9,14.1-5.9h43.8c1.7,0,3.4,0.2,5,0.7c0.5,0.1,1,0.3,1.5,0.4c0.9-3.5,2.7-6.7,5.2-9.2l0.2-0.1C79.2,2.2,84.1,0,89.5,0h43.8
			c5.5,0,10.5,2.2,14.1,5.9c3.6,3.6,5.9,8.6,5.9,14.1v43.8c0,5.5-2.2,10.5-5.9,14.1C145,80.3,141.8,82.2,138.3,83.1z M55.7,92.4
			v-2.8c0-5.2,2-10,5.3-13.5c2.6-2.8,5.9-4.8,9.7-5.8c-0.7-2-1.1-4.2-1.1-6.5V20.4c-0.7-0.3-1.4-0.6-2.2-0.7
			c-1.2-0.3-2.4-0.5-3.7-0.5H19.9c-4,0-7.7,1.7-10.4,4.3s-4.3,6.3-4.3,10.4v43.8c0,4,1.6,7.6,4.2,10.3l0.1,0.1
			c2.7,2.7,6.3,4.3,10.4,4.3C19.9,92.4,55.7,92.4,55.7,92.4z M73.1,75c-3.2,0.6-6.1,2.2-8.3,4.5c-2.4,2.6-3.9,6.1-3.9,10v43.8
			c0,4,1.7,7.7,4.3,10.4c2.7,2.7,6.3,4.3,10.4,4.3h43.8c4,0,7.7-1.7,10.4-4.3c2.7-2.7,4.3-6.3,4.3-10.4V89.5c0-1.3-0.2-2.5-0.4-3.6
			l0-0.1c-0.2-0.7-0.4-1.4-0.7-2.1H89.5c-5.5,0-10.5-2.2-14.1-5.9l0,0C74.6,77,73.8,76,73.1,75z M35.1,61.4h14.7
			c1.4,0,2.6,1.2,2.6,2.6c0,1.4-1.2,2.6-2.6,2.6H35.1v13.3c0,1.4-1.2,2.6-2.6,2.6c-1.4,0-2.6-1.2-2.6-2.6V38.5c0-2.6,1-5,2.8-6.7
			c1.7-1.7,4.1-2.8,6.7-2.8h11.8c1.4,0,2.6,1.2,2.6,2.6s-1.2,2.6-2.6,2.6H39.4c-1.2,0-2.3,0.5-3,1.2c-0.8,0.8-1.2,1.8-1.2,3
			C35.1,38.5,35.1,61.4,35.1,61.4z M133.4,5.2H89.5c-4,0-7.6,1.6-10.3,4.2l-0.1,0.1c-2.7,2.7-4.3,6.3-4.3,10.4v43.8
			c0,4,1.7,7.7,4.3,10.4c2.7,2.7,6.3,4.3,10.4,4.3h43.8c4,0,7.7-1.7,10.4-4.3c2.7-2.7,4.3-6.3,4.3-10.4V19.9c0-4-1.7-7.7-4.3-10.4
			S137.4,5.2,133.4,5.2z M120.7,32.2c-1.4,0-2.6-1.2-2.6-2.6s1.2-2.6,2.6-2.6h6.6c1.4,0,2.6,1.2,2.6,2.6s-1.2,2.6-2.6,2.6H120.7z
			 M111.5,30.7c3.1,0,5.8,1.2,7.8,3.3l0,0c2,2,3.2,4.8,3.2,7.8c0,3.1-1.2,5.8-3.3,7.8l0,0c-2,2-4.8,3.2-7.8,3.2
			c-3.1,0-5.8-1.2-7.8-3.3l0,0c-2-2-3.2-4.8-3.2-7.8c0-3.1,1.2-5.8,3.3-7.8l0,0C105.6,32,108.4,30.7,111.5,30.7z M115.6,37.7
			c-1.1-1.1-2.5-1.7-4.2-1.7c-1.6,0-3.1,0.7-4.2,1.7c-1.1,1.1-1.7,2.5-1.7,4.2c0,1.6,0.7,3.1,1.7,4.2c1.1,1.1,2.5,1.7,4.2,1.7
			c1.6,0,3.1-0.7,4.2-1.7c1.1-1.1,1.7-2.5,1.7-4.2C117.3,40.2,116.7,38.7,115.6,37.7z M125,20.3H98c-2.2,0-4.2,0.9-5.7,2.4
			c-1.5,1.5-2.4,3.5-2.4,5.7v27c0,2.2,0.9,4.2,2.4,5.7c1.5,1.5,3.5,2.4,5.7,2.4h27c2.2,0,4.2-0.9,5.7-2.4c1.5-1.5,2.4-3.5,2.4-5.7
			v-27c0-2.2-0.9-4.2-2.4-5.7C129.2,21.2,127.2,20.3,125,20.3z"/>
	</g>
</g>
</svg>
