<?xml version="1.0" encoding="utf-8"?>
<!-- Generator: Adobe Illustrator 28.0.0, SVG Export Plug-In . SVG Version: 6.00 Build 0)  -->
<svg version="1.1" id="Capa_1" xmlns="http://www.w3.org/2000/svg" xmlns:xlink="http://www.w3.org/1999/xlink" x="0px" y="0px"
	 viewBox="0 0 350 480" style="enable-background:new 0 0 350 480;" xml:space="preserve">
<style type="text/css">
	.st0{fill:url(#SVGID_1_);}
</style>
<linearGradient id="SVGID_1_" gradientUnits="userSpaceOnUse" x1="112.9874" y1="367.0469" x2="367.0469" y2="112.9874">
	<stop  offset="2.536774e-04" style="stop-color:#312880"/>
	<stop  offset="0.912" style="stop-color:#E62883"/>
</linearGradient>
<path class="st0" d="M26.7,280.7L2.3,256.4c-3.1-3.1-3.1-8.1,0-11.2L245.2,2.3c3.1-3.1,8.1-3.1,11.2,0L308,53.9
	c3.1,3.1,3.1,8.1,0,11.2L135.6,237.5c-3.1,3.1-3.1,8.1,0,11.2l158.5,158.5c3.1,3.1,3.1,8.1,0,11.2l-59.3,59.3
	c-3.1,3.1-8.1,3.1-11.2,0l-55.5-55.5c-3.1-3.1-3.1-8.1,0-11.2l179.6-179.6c3.1-3.1,3.1-8.1,0-11.2l-49.5-49.5
	c-3.1-3.1-8.1-3.1-11.2,0L107.4,350.2c-3.1,3.1-8.1,3.1-11.2,0l-35.9-35.9L26.7,280.7z"/>
</svg>
