<?xml version="1.0" encoding="utf-8"?>
<!-- Generator: Adobe Illustrator 28.0.0, SVG Export Plug-In . SVG Version: 6.00 Build 0)  -->
<svg version="1.1" id="Capa_1" xmlns="http://www.w3.org/2000/svg" xmlns:xlink="http://www.w3.org/1999/xlink" x="0px" y="0px"
	 viewBox="0 0 351.7 481.9" style="enable-background:new 0 0 351.7 481.9;" xml:space="preserve">
<style type="text/css">
	.st0{fill:none;stroke:url(#SVGID_1_);stroke-width:1.5248;stroke-miterlimit:10;}
</style>
<linearGradient id="SVGID_1_" gradientUnits="userSpaceOnUse" x1="113.2801" y1="368.5739" x2="368.5739" y2="113.2801">
	<stop  offset="2.536774e-04" style="stop-color:#312880"/>
	<stop  offset="0.912" style="stop-color:#E62883"/>
</linearGradient>
<path class="st0" d="M27.5,281.7L3.1,257.3c-3.1-3.1-3.1-8.1,0-11.2l243-243c3.1-3.1,8.1-3.1,11.2,0l51.6,51.6
	c3.1,3.1,3.1,8.1,0,11.2L136.5,238.4c-3.1,3.1-3.1,8.1,0,11.2l158.6,158.6c3.1,3.1,3.1,8.1,0,11.2l-59.3,59.3
	c-3.1,3.1-8.1,3.1-11.2,0L169,423.2c-3.1-3.1-3.1-8.1,0-11.2l179.7-179.7c3.1-3.1,3.1-8.1,0-11.2l-49.5-49.5
	c-3.1-3.1-8.1-3.1-11.2,0L108.2,351.2c-3.1,3.1-8.1,3.1-11.2,0l-36-36L27.5,281.7z"/>
</svg>
