<?xml version="1.0" encoding="utf-8"?>
<!-- Generator: Adobe Illustrator 28.0.0, SVG Export Plug-In . SVG Version: 6.00 Build 0)  -->
<svg version="1.1" id="Capa_1" xmlns="http://www.w3.org/2000/svg" xmlns:xlink="http://www.w3.org/1999/xlink" x="0px" y="0px"
	 viewBox="0 0 528.6 644.9" style="enable-background:new 0 0 528.6 644.9;" xml:space="preserve">
<style type="text/css">
	.st0{fill:url(#SVGID_1_);}
</style>
<g>
	<linearGradient id="SVGID_1_" gradientUnits="userSpaceOnUse" x1="0" y1="322.4509" x2="528.5881" y2="322.4509">
		<stop  offset="2.536774e-04" style="stop-color:#312880"/>
		<stop  offset="0.912" style="stop-color:#E62883"/>
	</linearGradient>
	<path class="st0" d="M511.5,5.1c6.6,0,12,5.4,12,12v610.7c0,6.6-5.4,12-12,12H17.1c-6.6,0-12-5.4-12-12V17.1c0-6.6,5.4-12,12-12
		H511.5 M511.5,0H17.1C7.6,0,0,7.6,0,17.1v610.7c0,9.4,7.6,17.1,17.1,17.1h494.4c9.4,0,17.1-7.6,17.1-17.1V17.1
		C528.6,7.6,520.9,0,511.5,0L511.5,0z"/>
</g>
</svg>
