<?xml version="1.0" encoding="utf-8"?>
<!-- Generator: Adobe Illustrator 28.0.0, SVG Export Plug-In . SVG Version: 6.00 Build 0)  -->
<svg version="1.1" id="Capa_1" xmlns="http://www.w3.org/2000/svg" xmlns:xlink="http://www.w3.org/1999/xlink" x="0px" y="0px"
	 viewBox="0 0 20.9 20.9" style="enable-background:new 0 0 20.9 20.9;" xml:space="preserve">
<style type="text/css">
	.st0{fill:#E62883;}
</style>
<path class="st0" d="M10.5,0C4.7,0,0,4.7,0,10.5c0,5.8,4.7,10.5,10.5,10.5s10.5-4.7,10.5-10.5C20.9,4.7,16.2,0,10.5,0z M16.7,6.9
	L8.6,15c-0.1,0.1-0.2,0.1-0.3,0l-4.1-4.1c-0.1-0.1-0.1-0.2,0-0.3l0.7-0.7c0.1-0.1,0.2-0.1,0.3,0L8.3,13c0.1,0.1,0.2,0.1,0.3,0
	l7.1-7.1c0.1-0.1,0.2-0.1,0.3,0l0.7,0.7C16.8,6.7,16.8,6.8,16.7,6.9z"/>
</svg>
