<?xml version="1.0" encoding="utf-8"?>
<!-- Generator: Adobe Illustrator 28.0.0, SVG Export Plug-In . SVG Version: 6.00 Build 0)  -->
<svg version="1.1" id="Capa_1" xmlns="http://www.w3.org/2000/svg" xmlns:xlink="http://www.w3.org/1999/xlink" x="0px" y="0px"
	 viewBox="0 0 185.4 169.7" style="enable-background:new 0 0 185.4 169.7;" xml:space="preserve">
<style type="text/css">
	.st0{fill:url(#SVGID_1_);}
</style>
<linearGradient id="SVGID_1_" gradientUnits="userSpaceOnUse" x1="-11.3372" y1="84.8351" x2="162.7804" y2="84.8351">
	<stop  offset="2.536774e-04" style="stop-color:#312880"/>
	<stop  offset="0.3309" style="stop-color:#E62883"/>
	<stop  offset="1" style="stop-color:#FFFFFF"/>
</linearGradient>
<path class="st0" d="M185.4,21.9V4.1c0-2.3-1.8-4.1-4.1-4.1L4.1,0C1.8,0,0,1.8,0,4.1l0,37.7c0,2.3,1.8,4.1,4.1,4.1l125.7,0
	c2.3,0,4.1,1.8,4.1,4.1l0,115.7c0,2.3,1.8,4.1,4.1,4.1h43.3c2.3,0,4.1-1.8,4.1-4.1l0-40.5c0-2.3-1.8-4.1-4.1-4.1l-131,0
	c-2.3,0-4.1-1.8-4.1-4.1l0-36.1c0-2.3,1.8-4.1,4.1-4.1l131,0c2.3,0,4.1-1.8,4.1-4.1l0-26.2V21.9z"/>
</svg>
